<?xml version="1.0" standalone="no"?>
<!DOCTYPE svg PUBLIC "-//W3C//DTD SVG 20010904//EN"
 "http://www.w3.org/TR/2001/REC-SVG-20010904/DTD/svg10.dtd">
<svg version="1.0" xmlns="http://www.w3.org/2000/svg"
 width="1200.000000pt" height="1200.000000pt" viewBox="0 0 1200.000000 1200.000000"
 preserveAspectRatio="xMidYMid meet">

<g transform="translate(0.000000,1200.000000) scale(0.100000,-0.100000)"
fill="#000000" stroke="none">
<path d="M0 11430 c0 -313 4 -570 8 -570 12 0 330 -192 437 -263 126 -85 255
-181 360 -268 184 -154 217 -201 219 -312 0 -37 0 -67 -2 -67 -2 0 -54 44
-115 98 -130 115 -209 174 -404 303 -200 132 -234 152 -255 154 -10 1 -24 9
-31 17 -14 18 -207 132 -213 125 -2 -2 -3 -477 -2 -1056 l3 -1052 42 31 42 31
63 -67 c35 -36 64 -69 65 -73 1 -3 -27 -28 -62 -54 l-65 -49 -42 37 -43 36 -3
-1716 -2 -1717 24 -29 c17 -19 23 -38 21 -56 -2 -16 -4 -31 -4 -34 -1 -4 -8
-10 -17 -13 -12 -5 -14 -3 -8 6 16 22 16 62 0 83 -14 18 -15 14 -16 -54 l0
-74 61 7 c75 9 99 -7 99 -65 0 -29 -5 -41 -22 -50 -20 -10 -21 -10 -12 2 21
26 24 64 8 87 -8 12 -20 22 -25 22 -6 0 -3 -10 5 -21 8 -12 13 -26 11 -33 -2
-6 -6 -23 -9 -38 -4 -16 -10 -28 -15 -28 -6 0 -6 13 0 32 6 24 5 38 -6 55 -9
13 -16 23 -18 23 -1 0 -2 -25 -2 -55 0 -38 -5 -59 -15 -65 -8 -5 -17 -7 -19
-4 -3 3 0 8 6 12 14 9 25 64 15 78 -7 11 -46 34 -56 34 -3 0 -6 -731 -6 -1625
0 -894 3 -1625 6 -1625 8 0 204 104 294 155 304 174 418 249 592 388 l98 77 0
-43 c0 -24 5 -48 11 -54 21 -21 -27 -97 -99 -161 -175 -155 -558 -406 -808
-530 l-94 -47 0 -297 c0 -296 2 -314 33 -288 71 60 152 118 159 114 4 -3 8 -1
8 5 0 6 12 17 28 25 15 8 23 15 19 16 -9 0 79 70 89 70 2 0 15 9 27 20 12 11
35 25 52 29 16 5 24 10 17 10 -22 2 -3 21 20 21 12 0 18 3 14 7 -3 4 8 12 25
17 18 6 37 20 43 31 21 36 37 47 89 59 39 8 53 16 55 31 5 27 31 55 51 55 12
0 13 2 3 9 -10 6 -4 12 19 21 26 11 34 11 37 1 2 -7 12 0 23 18 13 21 27 31
43 31 16 0 46 20 87 60 36 33 76 62 93 66 17 4 25 9 19 11 -21 8 -14 31 10 35
12 2 21 9 19 16 -1 6 3 12 9 12 5 0 7 5 3 11 -4 7 0 9 14 5 11 -4 23 -2 27 4
3 5 14 10 23 10 18 0 62 41 62 57 0 5 16 15 37 22 46 17 124 88 116 107 -4 11
2 13 27 7 32 -6 33 -5 27 23 -3 16 -4 23 -1 17 8 -18 25 -16 18 2 -4 9 0 15
10 15 9 0 16 6 16 13 0 6 5 4 11 -6 13 -22 42 -8 86 43 18 20 57 50 88 65 30
16 55 34 55 41 0 7 8 10 18 7 10 -2 24 3 31 11 8 9 10 16 7 16 -18 0 43 43 84
61 29 12 71 54 63 63 -7 7 76 45 100 46 9 0 30 15 46 32 23 26 27 36 18 47
-10 12 -9 14 5 8 10 -3 18 -2 18 4 0 5 8 13 18 16 30 12 103 65 109 79 3 8 10
14 17 14 6 0 34 20 61 45 28 24 75 58 106 74 55 30 103 68 110 88 2 6 17 13
34 15 18 2 41 16 58 35 15 17 43 37 62 43 19 6 35 19 37 28 2 12 13 17 37 17
23 0 37 6 45 20 16 29 27 35 67 35 27 0 46 8 72 32 63 57 77 68 91 68 7 0 19
6 25 14 6 7 31 26 56 41 24 16 46 38 48 49 2 12 5 -8 7 -44 6 -188 35 -230 35
-51 0 129 9 152 60 165 12 3 25 15 28 26 3 13 20 23 51 32 28 7 45 17 42 24
-6 15 51 69 82 79 12 3 22 12 22 20 0 16 25 26 45 19 9 -4 15 0 15 10 0 9 8
16 20 16 11 0 20 5 20 10 0 6 9 10 20 10 11 0 20 5 20 10 0 6 14 10 30 10 22
0 30 -5 31 -17 0 -10 3 -30 5 -45 4 -22 -6 -36 -57 -85 -33 -32 -67 -59 -74
-61 -8 -2 -47 -35 -87 -73 -40 -38 -64 -66 -53 -63 11 4 46 33 78 65 31 33 60
59 63 59 4 0 3 -48 0 -107 -4 -62 -3 -114 3 -122 7 -11 10 -9 16 8 12 40 25
21 25 -39 0 -52 3 -60 18 -60 17 0 20 13 25 137 4 75 7 162 7 193 0 42 5 61
18 73 10 10 22 17 25 17 4 0 7 -73 7 -162 0 -89 2 -159 4 -157 3 2 7 81 11
174 3 93 10 174 15 179 6 6 10 16 10 24 0 12 -2 12 -17 1 -15 -13 -16 -10 -10
41 4 30 7 67 7 82 0 21 4 25 20 21 11 -3 20 -9 20 -14 0 -5 11 -9 24 -9 14 0
28 -4 31 -10 15 -25 61 -9 104 35 46 47 37 64 -10 19 -35 -34 -58 -22 -24 12
23 22 46 30 83 25 16 -1 16 -73 0 -117 -6 -18 -22 -38 -35 -45 -30 -16 -29
-25 7 -56 l30 -25 0 -211 c0 -115 2 -208 4 -206 2 2 7 53 10 112 7 134 21 167
30 73 9 -84 26 -86 26 -3 0 65 11 465 14 506 1 14 6 26 12 28 16 5 24 -69 26
-256 l1 -166 8 225 c7 211 9 226 28 239 28 18 26 29 -5 41 -21 9 -25 14 -19
33 4 12 8 34 9 50 1 23 3 25 12 12 13 -18 71 -20 77 -2 2 7 8 8 13 3 5 -5 4
-11 -3 -13 -8 -3 -13 -23 -13 -51 0 -34 -3 -43 -10 -32 -7 11 -10 11 -10 2 0
-7 -4 -10 -10 -7 -6 3 -10 2 -10 -4 0 -5 5 -13 10 -16 6 -3 10 -1 10 4 0 6 6
10 13 9 7 -2 13 11 15 32 2 26 14 45 44 73 48 46 58 38 46 -36 -4 -29 -5 -142
-2 -252 3 -110 6 -229 6 -265 0 -64 2 -60 14 30 4 25 9 39 11 33 15 -41 21 13
27 224 7 268 14 353 27 353 5 0 9 -24 10 -52 1 -59 16 -166 18 -130 1 18 7 22
36 22 28 0 35 -4 35 -20 0 -13 7 -20 20 -20 13 0 20 -7 20 -20 0 -19 7 -20
110 -20 67 0 110 4 110 10 0 6 7 10 16 10 39 0 44 22 44 204 l0 176 -30 0
c-16 0 -30 5 -30 10 0 6 -9 10 -20 10 -13 0 -20 7 -20 20 0 11 -4 20 -10 20
-5 0 -10 -4 -10 -10 0 -5 -9 -10 -20 -10 -11 0 -20 4 -20 9 0 5 -15 11 -32 15
-24 5 -36 2 -45 -9 -10 -15 -14 -15 -42 -1 -16 9 -40 16 -52 16 -36 0 -139 23
-139 31 0 4 13 17 30 29 l30 21 -1 107 c0 141 9 212 27 205 8 -3 12 -8 9 -13
-4 -7 115 -23 167 -22 15 1 29 -6 32 -14 5 -14 33 -16 208 -13 l202 4 7 -25 7
-25 1 27 1 28 226 -1 226 -1 26 30 c69 78 92 106 92 110 0 3 8 14 17 24 15 17
15 20 3 28 -12 8 -15 43 -15 199 0 104 -3 192 -7 196 -3 4 -16 -3 -28 -15 -12
-12 -24 -19 -28 -16 -3 4 3 13 14 21 16 13 17 16 4 24 -12 8 -10 15 15 41 l30
31 7 412 c3 227 6 417 7 422 0 6 -2 209 -6 453 l-5 443 -33 22 c-40 27 -185
137 -203 154 -7 7 -18 13 -24 13 -6 0 -9 3 -5 6 3 3 37 -15 75 -40 38 -25 74
-46 80 -46 6 0 13 -6 15 -12 4 -10 8 -9 16 2 9 13 11 12 11 -6 0 -17 9 -23 53
-32 28 -6 70 -10 92 -10 22 0 61 -9 87 -21 26 -11 57 -21 70 -21 13 0 29 -5
36 -12 17 -17 204 -22 287 -8 39 6 130 13 203 16 74 2 150 8 170 14 21 5 113
10 206 10 163 0 268 -11 431 -45 39 -8 108 -17 155 -21 47 -4 88 -11 91 -16 7
-10 162 -20 362 -22 115 -1 128 1 124 16 -4 13 11 28 27 28 11 0 16 -337 16
-966 l0 -731 24 -28 c14 -16 22 -35 19 -46 -7 -24 -23 -35 -24 -17 -1 7 -5 -5
-10 -27 -9 -47 -10 -277 0 -320 7 -30 7 -30 13 -5 9 34 12 209 4 217 -3 3 -6
17 -6 30 0 18 5 24 18 21 20 -4 31 -68 12 -68 -8 0 -10 -14 -6 -42 3 -24 8
-63 11 -88 10 -75 15 -90 30 -90 12 0 15 17 15 84 0 47 -4 96 -9 109 -10 26 1
39 27 30 14 -5 17 -63 2 -63 -5 0 -10 -5 -10 -11 0 -5 6 -7 13 -3 10 6 10 4 0
-7 -18 -19 -16 -76 3 -87 10 -6 14 -19 12 -38 l-3 -28 -83 -2 c-46 -2 -86 -4
-88 -6 -12 -12 149 -198 172 -198 7 0 15 -6 17 -12 3 -8 6 -6 6 5 1 11 9 17
25 17 49 0 56 -8 56 -71 0 -33 4 -59 10 -59 6 0 10 26 10 59 0 33 5 63 10 66
6 4 24 4 40 0 l30 -7 1 -116 c2 -135 6 -130 17 18 l7 105 40 -1 c46 -1 40 17
54 -169 l8 -110 4 95 c4 108 6 159 8 177 1 9 14 11 49 6 26 -3 48 -7 50 -8 1
-1 5 -46 8 -99 7 -133 22 -168 24 -56 1 47 1 101 0 121 l-1 37 56 1 56 0 -7
-32 c-4 -18 -6 -36 -6 -42 1 -5 6 -46 11 -90 6 -44 10 -106 10 -137 1 -58 1
-58 31 -58 27 0 30 -3 30 -30 0 -23 4 -30 20 -30 13 0 20 7 20 20 0 13 7 20
20 20 16 0 20 -7 20 -30 0 -23 4 -30 20 -30 17 0 20 -7 20 -40 0 -30 -4 -40
-16 -40 -23 0 -44 -25 -44 -54 0 -14 -4 -26 -10 -26 -5 0 -10 -9 -10 -20 0
-11 5 -20 10 -20 6 0 10 -9 10 -20 0 -11 5 -20 10 -20 12 0 13 -100 1 -119
-14 -21 -2 -41 24 -41 15 0 26 -8 30 -20 6 -20 35 -28 35 -10 0 15 29 12 46
-4 8 -8 14 -22 14 -30 0 -13 13 -16 70 -16 l70 0 0 40 c0 33 3 40 20 40 16 0
20 7 20 36 0 25 7 43 21 55 19 17 23 34 30 141 10 167 15 188 45 188 13 0 24
-4 24 -10 0 -5 9 -10 20 -10 11 0 20 -4 20 -10 0 -5 7 -10 15 -10 27 0 152
-128 160 -163 14 -71 17 -117 6 -117 -6 0 -11 5 -11 10 0 6 -11 10 -24 10 -17
0 -27 8 -34 29 -6 16 -26 40 -44 55 -42 32 -70 36 -43 6 10 -11 24 -20 32 -20
8 0 13 -11 13 -30 0 -16 5 -41 12 -55 9 -21 18 -26 43 -24 52 5 55 -2 56 -134
1 -67 5 -133 9 -147 5 -16 8 23 9 102 1 114 9 155 25 129 3 -5 8 -48 11 -96 3
-55 10 -92 19 -101 13 -12 15 -10 19 13 2 16 5 -3 6 -42 1 -38 4 -92 8 -120 3
-27 5 -78 5 -113 -1 -35 3 -73 8 -85 6 -15 9 6 9 68 1 50 4 127 7 171 6 73 9
81 25 77 11 -3 19 -9 19 -13 0 -4 11 -12 25 -18 22 -10 25 -18 25 -59 0 -48
17 -90 26 -67 6 15 45 6 61 -13 10 -13 12 -13 12 3 0 11 3 31 7 46 5 24 2 30
-26 45 -18 10 -55 33 -82 50 -28 18 -54 33 -59 33 -5 0 -16 16 -24 36 -17 41
-20 134 -5 134 6 0 10 7 10 15 0 8 5 15 10 15 6 0 10 -6 10 -14 0 -8 6 -16 12
-19 11 -4 11 -7 1 -18 -11 -11 -13 -10 -13 4 0 9 -4 17 -10 17 -22 0 -8 -28
30 -63 30 -27 40 -43 40 -66 0 -20 5 -31 15 -31 27 0 11 69 -24 102 -30 28
-33 48 -8 48 7 0 18 -9 25 -20 7 -12 17 -18 22 -15 13 8 40 -19 40 -39 0 -12
10 -16 35 -16 19 0 35 -5 35 -11 0 -6 7 -9 15 -5 12 4 15 -4 15 -39 0 -46 -7
-54 -28 -33 -9 9 -15 9 -23 1 -7 -7 -3 -16 15 -31 l26 -20 0 -178 c0 -97 2
-175 4 -173 2 2 6 75 8 162 3 87 8 160 11 163 3 3 15 -3 27 -14 17 -16 21 -34
25 -102 2 -46 8 -87 13 -92 17 -17 31 18 33 85 2 72 6 65 -74 150 -12 12 -17
27 -13 40 3 12 6 40 6 62 0 30 3 36 10 25 5 -8 10 -30 10 -47 0 -18 5 -33 10
-33 6 0 10 6 10 14 0 8 8 16 18 19 22 5 60 -14 135 -67 32 -22 86 -59 121 -81
166 -105 176 -119 176 -239 0 -51 4 -86 10 -86 6 0 10 31 10 74 0 92 16 113
51 67 13 -17 31 -31 41 -31 27 0 65 -26 128 -86 30 -28 65 -55 78 -59 12 -3
22 -10 22 -14 0 -4 13 -6 28 -3 25 3 30 -1 46 -36 10 -23 24 -38 30 -36 7 3
23 -4 36 -16 13 -11 28 -20 33 -20 6 0 25 -11 43 -25 18 -14 44 -25 58 -25 14
0 40 -13 58 -28 18 -16 40 -33 50 -38 9 -5 37 -28 62 -51 24 -24 50 -43 55
-43 6 0 11 -4 11 -10 0 -5 11 -12 24 -16 14 -3 27 -12 30 -20 3 -8 12 -14 19
-14 8 0 22 -9 32 -20 10 -11 27 -20 37 -20 11 0 23 -11 28 -25 5 -14 16 -25
25 -25 22 0 95 -69 89 -84 -4 -10 9 -16 40 -20 25 -4 46 -11 46 -16 0 -6 18
-13 40 -16 30 -5 40 -11 40 -25 0 -15 6 -19 28 -17 30 2 81 -29 82 -50 0 -7
-5 -10 -12 -6 -7 4 -8 3 -4 -5 6 -9 11 -9 23 1 14 11 15 10 9 -8 -5 -16 1 -24
30 -37 19 -10 40 -14 46 -11 6 4 8 2 5 -3 -4 -6 6 -16 24 -22 19 -7 28 -15 23
-22 -4 -7 -3 -9 4 -5 5 3 13 0 15 -6 3 -7 6 95 6 228 l1 240 -72 35 c-171 81
-422 244 -489 316 -41 45 -41 46 -35 101 4 31 9 58 11 60 2 2 30 -18 62 -46
76 -65 226 -158 385 -238 70 -35 130 -64 133 -64 3 0 5 1541 5 3425 0 1884 -3
3425 -6 3425 -10 0 -279 -153 -349 -198 -80 -52 -188 -137 -224 -176 -14 -14
-27 -26 -30 -26 -14 0 -1 130 15 155 50 76 340 279 552 387 l42 22 0 695 c0
660 -1 693 -18 679 -36 -32 -46 -29 -14 3 19 21 32 45 32 61 0 22 -22 4 -161
-133 -89 -88 -165 -156 -171 -153 -6 4 -8 3 -5 -3 6 -9 -102 -123 -275 -291
-74 -71 -93 -79 -28 -12 28 29 40 50 40 71 0 16 -4 29 -8 29 -16 0 -52 -37
-52 -53 0 -8 -11 -18 -25 -21 -14 -4 -25 -12 -25 -20 0 -7 -14 -16 -30 -19
-21 -5 -30 -12 -30 -27 0 -19 24 -27 69 -21 7 2 10 -2 6 -8 -4 -8 -266 -11
-860 -11 l-854 0 141 228 c77 125 157 254 178 287 20 33 61 99 90 148 l55 87
972 -2 c921 -3 973 -2 973 15 0 16 -52 17 -960 17 -528 0 -960 2 -960 5 0 2
28 51 63 107 208 339 346 561 384 621 24 37 43 69 43 72 0 13 -49 3 -54 -11
-3 -8 -81 -138 -173 -287 -91 -150 -198 -325 -237 -389 l-71 -117 -1008 -1
-1009 0 7 33 c4 17 45 196 91 397 46 201 84 369 84 373 0 4 -18 7 -39 7 -36 0
-39 -2 -43 -32 -3 -18 -35 -170 -73 -338 -37 -168 -75 -339 -84 -380 l-16 -75
-535 -5 -535 -5 549 -3 548 -2 -5 -22 c-3 -13 -24 -106 -46 -208 -23 -102 -59
-259 -79 -350 l-37 -165 -863 -3 c-675 -2 -862 1 -862 10 0 7 -16 114 -35 238
-92 583 -90 564 -74 555 9 -6 10 3 5 36 -26 173 -36 211 -31 124 4 -61 3 -64
-5 -25 -4 25 -22 135 -39 245 -17 110 -38 236 -46 280 -8 44 -15 90 -15 103 0
17 -6 22 -26 22 -19 0 -24 -4 -20 -17 2 -10 12 -61 20 -113 51 -313 96 -591
101 -632 l7 -48 -1002 -2 c-880 -3 -1003 -1 -1014 12 -11 13 -213 382 -385
703 -39 71 -58 97 -72 97 -31 0 -56 52 223 -455 97 -176 180 -328 184 -338 6
-16 -50 -17 -994 -17 l-1001 0 -89 93 c-48 50 -149 157 -223 237 -181 194
-192 205 -327 353 -83 91 -123 127 -139 127 -13 0 -23 -3 -23 -6 0 -5 181
-201 349 -379 42 -44 144 -152 226 -240 83 -88 153 -161 158 -163 4 -2 7 -8 7
-13 0 -5 -84 -8 -197 -8 -113 1 -185 5 -168 9 17 4 47 8 68 9 50 1 48 21 -3
21 -36 0 -40 3 -40 24 0 16 -7 27 -20 31 -11 3 -20 15 -20 26 0 12 -7 19 -20
19 -13 0 -20 7 -20 20 0 24 -42 70 -65 70 -8 0 -15 6 -15 13 0 14 -40 37 -65
37 -8 0 -15 7 -15 15 0 8 -7 15 -15 15 -9 0 -15 9 -15 24 0 17 -7 26 -25 30
-13 3 -35 17 -49 31 -14 14 -32 25 -41 25 -9 0 -15 9 -15 23 0 12 -9 29 -20
37 -11 8 -20 20 -20 27 0 6 -9 15 -20 18 -11 3 -20 15 -20 25 0 13 -17 25 -60
42 -53 20 -60 26 -60 50 0 18 -5 28 -15 28 -25 0 -65 23 -65 37 0 7 -9 13 -20
13 -13 0 -20 7 -20 20 0 12 -7 20 -16 20 -18 0 -44 23 -44 39 0 8 -105 11
-340 11 l-340 0 0 -570z m5957 -182 c-2 -13 -4 -5 -4 17 -1 22 1 32 4 23 2
-10 2 -28 0 -40z m-4011 -205 c60 -65 154 -165 210 -223 55 -58 165 -174 243
-257 l143 -153 -147 0 c-95 0 -144 4 -140 10 3 6 17 10 31 10 26 0 47 31 26
38 -7 2 -12 11 -12 20 0 17 -41 42 -67 42 -7 0 -13 9 -13 20 0 11 -5 20 -12
20 -20 0 -48 32 -48 57 0 18 -5 23 -25 23 -17 0 -29 8 -37 25 -7 16 -22 27
-45 31 -26 5 -33 11 -33 30 0 13 -4 24 -10 24 -5 0 -10 7 -10 15 0 8 -4 15
-10 15 -5 0 -10 7 -10 16 0 22 -29 43 -57 44 -18 0 -23 6 -23 25 0 18 -5 25
-20 25 -11 0 -20 7 -20 15 0 8 -9 15 -20 15 -11 0 -20 7 -20 15 0 8 -4 15 -8
15 -8 0 -23 11 -69 50 -7 5 -19 10 -28 10 -10 0 -15 10 -15 30 0 23 -4 30 -20
30 -11 0 -20 7 -20 15 0 8 5 15 11 15 5 0 8 4 5 9 -4 5 -41 13 -84 17 -74 8
-75 9 -32 15 25 3 97 7 161 7 l117 2 108 -117z m2061 -105 c67 -123 158 -289
202 -370 45 -81 81 -149 81 -152 0 -4 -384 -6 -854 -6 l-853 0 -63 68 c-34 37
-105 114 -159 172 -53 58 -134 146 -181 195 -47 50 -118 126 -159 170 -41 44
-88 95 -105 113 l-30 32 1000 0 999 0 122 -222z m1937 130 c9 -51 34 -205 56
-343 22 -137 43 -265 46 -282 l5 -33 -860 0 -859 0 -83 153 c-45 83 -95 175
-109 202 -15 28 -69 125 -119 217 -50 92 -91 170 -91 173 0 3 449 5 999 5
l999 0 16 -92z m4055 70 c-13 -24 -295 -488 -334 -548 -12 -19 -42 -67 -66
-107 l-44 -72 -857 -1 c-680 0 -858 3 -858 13 0 6 4 28 9 47 5 19 41 175 80
345 40 171 74 318 77 328 5 16 62 17 1005 17 l1000 0 -12 -22z m1922 -176 c-6
-11 -27 -32 -48 -47 l-38 -28 45 46 c48 51 56 56 41 29z m-11704 -52 c24 -16
49 -30 55 -30 6 0 8 -3 5 -7 -8 -7 -73 24 -101 50 -31 27 -8 20 41 -13z
m11578 -80 c-10 -11 -23 -20 -28 -20 -6 0 0 11 13 25 27 29 42 25 15 -5z
m-11335 -102 c39 -29 16 -31 -26 -3 -50 34 -51 35 -22 27 13 -4 34 -15 48 -24z
m11238 12 c-7 -11 -19 -22 -28 -25 -8 -4 -4 5 9 19 29 31 36 33 19 6z m-11164
-79 c10 -11 28 -22 42 -25 21 -6 35 -26 17 -26 -8 0 -103 61 -103 66 0 11 29
1 44 -15z m248 -181 c6 0 22 -10 34 -21 14 -13 41 -23 68 -26 50 -6 63 -23 19
-23 -41 0 -104 20 -98 30 3 5 -10 16 -29 25 -19 9 -41 24 -48 33 -11 15 -10
15 14 -1 15 -9 33 -17 40 -17z m2068 -400 c80 -85 166 -177 190 -203 l43 -48
-109 3 c-104 3 -109 4 -112 26 -2 14 -10 22 -23 22 -16 0 -19 7 -19 40 0 33
-3 40 -20 40 -15 0 -20 7 -20 25 0 18 -5 25 -20 25 -14 0 -20 7 -20 21 0 22
-22 49 -40 49 -6 0 -18 7 -26 15 -9 8 -24 15 -35 15 -12 0 -19 7 -19 18 0 10
-9 24 -20 32 -11 8 -20 22 -20 32 0 11 -7 18 -20 18 -11 0 -20 7 -20 15 0 20
-45 65 -65 65 -10 0 -15 10 -15 34 0 38 -12 44 -95 48 -27 1 4 5 70 8 l120 5
74 -75 c41 -41 140 -145 221 -230z m1472 283 c35 -60 288 -524 288 -528 0 -3
-335 -5 -744 -5 l-744 0 -33 38 c-18 20 -91 100 -163 176 -72 77 -169 181
-215 230 -47 50 -88 93 -93 94 -40 17 114 21 845 22 l842 1 17 -28z m1775
-228 c23 -137 42 -262 42 -278 l1 -27 -746 2 -747 3 -148 269 c-81 148 -146
273 -143 278 3 4 386 7 852 6 l847 -3 42 -250z m1695 250 c3 -3 -5 -52 -18
-108 -13 -56 -41 -178 -62 -272 l-38 -170 -750 -3 -749 -2 -38 242 c-21 134
-41 260 -44 281 l-6 37 850 0 c467 0 852 -2 855 -5z m1738 -5 c0 -6 -19 -41
-41 -78 -23 -37 -57 -92 -75 -122 -18 -30 -73 -120 -122 -200 l-88 -145 -753
-3 c-714 -2 -752 -1 -747 15 7 23 126 531 126 538 0 3 383 5 850 5 570 0 850
-3 850 -10z m1533 1 l197 -6 -77 -77 c-42 -43 -79 -76 -81 -73 -3 2 28 36 69
75 l74 70 -63 0 c-55 0 -65 -3 -69 -19 -3 -11 -11 -22 -19 -25 -8 -3 -14 -12
-14 -21 0 -8 -16 -21 -35 -29 -19 -8 -35 -20 -35 -25 0 -17 -63 -76 -97 -92
-18 -7 -33 -18 -33 -23 0 -5 -8 -16 -19 -25 -10 -9 -20 -25 -22 -36 -3 -14
-14 -21 -34 -23 -40 -5 -55 -19 -55 -53 0 -25 -4 -29 -30 -29 -26 0 -31 -5
-44 -47 -8 -27 -15 -44 -15 -40 -1 5 -8 1 -17 -8 -9 -8 -13 -22 -10 -30 5 -13
-82 -15 -695 -15 -561 0 -700 3 -696 13 4 11 171 282 292 475 l46 72 642 -1
c353 -1 731 -4 840 -8z m-10063 -10 c-9 -5 -40 -6 -70 -1 l-55 8 70 0 c45 1
65 -2 55 -7z m10079 -178 c-20 -26 -59 -63 -66 -63 -4 0 3 10 15 23 11 12 21
27 21 32 1 6 5 10 10 10 5 0 13 3 17 8 14 14 16 7 3 -10z m-9922 1 c-3 -3 -12
-4 -19 -1 -8 3 -5 6 6 6 11 1 17 -2 13 -5z m193 -96 c0 -11 8 -18 19 -18 11 0
32 -11 48 -24 15 -13 44 -31 63 -41 19 -10 48 -28 63 -41 16 -13 39 -27 53
-30 13 -3 24 -11 24 -17 0 -6 8 -19 17 -29 16 -18 16 -19 -8 -26 -18 -5 -8 -9
41 -15 36 -4 77 -7 93 -8 15 0 27 -4 27 -9 0 -6 -40 -10 -92 -10 -89 0 -93 1
-145 37 -36 25 -49 39 -41 44 16 10 14 12 -57 44 -64 29 -108 63 -99 76 3 5
-2 9 -10 9 -8 0 -18 9 -21 20 -3 11 -13 20 -20 20 -20 0 -30 21 -15 30 23 14
60 6 60 -12z m9635 -2 c-15 -23 -45 -42 -45 -29 0 5 52 53 58 53 1 0 -5 -11
-13 -24z m-9796 -62 l34 -14 -7 -77 c-3 -42 -6 -112 -6 -156 l0 -80 -21 27
c-14 17 -30 26 -50 26 l-29 0 0 151 0 150 23 -7 c12 -3 37 -13 56 -20z m9660
-74 c-45 -44 -84 -78 -87 -76 -2 3 33 43 79 88 46 46 85 80 87 76 2 -4 -34
-43 -79 -88z m-10769 40 c0 -5 -2 -10 -4 -10 -3 0 -8 5 -11 10 -3 6 -1 10 4
10 6 0 11 -4 11 -10z m75 -40 c3 -5 1 -10 -4 -10 -6 0 -11 5 -11 10 0 6 2 10
4 10 3 0 8 -4 11 -10z m50 -30 c3 -5 1 -10 -4 -10 -6 0 -11 5 -11 10 0 6 2 10
4 10 3 0 8 -4 11 -10z m10530 -80 c-10 -11 -22 -20 -27 -20 -10 0 24 38 36 39
5 1 1 -8 -9 -19z m70 1 c-3 -6 -11 -11 -16 -11 -5 0 -4 6 3 14 14 16 24 13 13
-3z m-8936 -57 c2 -2 -12 -4 -32 -4 -20 0 -37 -4 -37 -10 0 -5 11 -10 25 -10
14 0 25 -4 25 -9 0 -5 9 -13 20 -16 11 -4 20 -15 20 -27 0 -15 5 -19 18 -16
12 3 24 -2 31 -14 7 -11 25 -24 42 -30 16 -5 29 -16 29 -24 0 -8 7 -14 15 -14
9 0 21 -12 27 -26 7 -14 26 -32 42 -40 17 -8 49 -26 72 -42 22 -15 56 -37 75
-49 19 -12 39 -26 45 -31 26 -23 57 -32 111 -33 l58 -2 -60 -7 c-94 -12 -198
-10 -221 3 -47 28 -186 140 -200 163 -9 13 -20 24 -25 24 -17 0 -109 65 -109
78 0 6 -4 12 -8 12 -4 0 -17 7 -27 15 -11 8 -53 36 -92 62 -40 26 -73 51 -73
55 0 8 220 0 229 -8z m1343 -100 c164 -171 289 -306 286 -308 -2 0 -66 1 -143
5 -77 3 -112 6 -77 7 34 1 62 7 62 12 0 6 -9 10 -20 10 -13 0 -20 7 -20 19 0
11 -9 23 -20 26 -13 4 -20 15 -20 31 0 17 -5 24 -20 24 -15 0 -20 7 -20 25 0
18 -5 25 -20 25 -11 0 -20 7 -20 15 0 8 -4 15 -9 15 -13 0 -71 56 -71 68 0 6
-9 14 -20 17 -11 3 -20 10 -20 15 0 5 -9 12 -20 15 -11 3 -20 13 -20 21 0 8
-10 19 -22 24 -21 8 -22 9 -3 10 l20 1 -20 9 c-11 5 -49 10 -85 11 l-65 3 85
6 c178 13 164 18 282 -106z m1529 -91 c63 -113 116 -210 117 -215 2 -4 -293
-8 -656 -8 l-659 0 -48 53 c-27 28 -107 114 -178 189 -71 76 -138 149 -149
163 l-19 25 739 0 739 0 114 -207z m1409 201 c0 -5 53 -327 65 -396 l5 -28
-663 0 -663 0 -89 163 c-48 89 -101 186 -117 215 l-30 52 746 0 c410 0 746 -3
746 -6z m1515 -16 c-3 -13 -25 -108 -49 -213 l-43 -190 -665 -3 -665 -2 -12
87 c-7 49 -21 140 -32 203 -10 63 -19 121 -19 128 0 9 156 12 745 12 l745 0
-5 -22z m1515 16 c0 -4 -25 -47 -55 -95 -86 -139 -161 -261 -181 -296 l-18
-33 -663 0 c-365 0 -663 3 -663 7 0 7 89 391 95 411 4 9 161 12 745 12 407 0
740 -3 740 -6z m1507 -4 c-1 -3 -38 -39 -82 -80 -44 -41 -69 -62 -55 -46 14
16 45 48 70 72 l45 44 -50 -1 c-27 -1 -63 -5 -80 -9 l-30 -8 30 -1 c28 -2 28
-3 8 -11 -34 -14 -73 -52 -73 -71 0 -13 -12 -19 -51 -24 -42 -6 -52 -12 -62
-34 -14 -34 -47 -71 -63 -71 -6 0 -14 -9 -17 -19 -3 -11 -17 -22 -36 -26 -17
-4 -31 -11 -31 -17 0 -5 -11 -23 -25 -40 -37 -44 -33 -58 18 -60 23 -1 -5 -5
-63 -8 -124 -9 -1180 -12 -1180 -5 0 3 16 32 37 63 20 31 68 109 106 172 39
63 81 132 95 154 l24 38 734 -3 c404 -2 733 -6 731 -9z m-10542 -80 c3 -5 1
-10 -4 -10 -6 0 -11 5 -11 10 0 6 2 10 4 10 3 0 8 -4 11 -10z m95 0 c0 -5 -4
-10 -10 -10 -5 0 -10 5 -10 10 0 6 5 10 10 10 6 0 10 -4 10 -10z m1675 -215
c131 -88 251 -188 282 -234 17 -26 23 -48 23 -92 0 -33 -4 -59 -8 -59 -5 0
-19 12 -33 26 -83 90 -320 249 -526 353 l-63 31 0 81 0 81 108 -57 c59 -31
157 -90 217 -130z m8588 110 c-10 -13 -24 -27 -31 -30 -8 -3 -3 8 10 24 28 36
46 41 21 6z m-93 -88 c0 -2 -10 -12 -22 -23 l-23 -19 19 23 c18 21 26 27 26
19z m-10330 -37 c0 -5 -4 -10 -10 -10 -5 0 -10 5 -10 10 0 6 5 10 10 10 6 0
10 -4 10 -10z m45 -19 c3 -5 1 -12 -5 -16 -5 -3 -10 1 -10 9 0 18 6 21 15 7z
m10225 -4 c0 -2 -15 -16 -32 -33 l-33 -29 29 33 c28 30 36 37 36 29z m-10195
-17 c3 -5 1 -10 -4 -10 -6 0 -11 5 -11 10 0 6 2 10 4 10 3 0 8 -4 11 -10z
m6074 -134 c11 -57 38 -223 45 -276 4 -31 12 -82 56 -335 17 -103 59 -358 64
-395 9 -58 35 -221 46 -285 6 -33 24 -145 40 -250 30 -196 77 -479 84 -505 3
-8 2 24 -1 73 l-6 87 285 0 284 0 -12 -72 c-24 -137 -12 -113 32 62 24 96 46
186 48 200 16 75 51 232 81 360 18 80 45 199 60 265 15 66 34 145 42 175 8 30
16 66 18 81 2 14 29 132 60 263 30 130 55 239 55 242 0 2 266 4 590 4 325 0
590 -3 590 -6 0 -5 -88 -152 -150 -251 l-14 -22 -525 -1 c-289 0 -527 -2 -529
-5 -3 -3 229 -5 516 -5 314 0 522 -4 522 -9 0 -5 -23 -47 -52 -93 -28 -46 -99
-162 -158 -258 -59 -96 -136 -221 -171 -278 -35 -56 -77 -124 -94 -152 -16
-27 -52 -84 -79 -127 -26 -43 -56 -91 -66 -108 -10 -16 -36 -59 -58 -95 -22
-36 -78 -128 -123 -205 -46 -77 -90 -151 -98 -165 -9 -13 -11 -21 -4 -17 6 4
24 28 39 55 36 62 140 224 153 239 6 7 11 16 11 21 0 5 14 28 30 50 17 23 30
44 30 46 0 2 27 46 60 97 33 52 63 101 67 109 4 8 40 68 81 135 41 66 87 140
102 165 113 188 213 346 221 348 5 2 9 8 9 13 0 6 17 38 38 72 21 34 51 84 68
110 l29 48 528 -2 c290 -1 527 -4 527 -6 0 -3 -48 -54 -107 -114 l-107 -109
-479 0 c-264 1 -482 -1 -485 -4 -6 -6 49 -8 251 -6 l127 1 2 -53 2 -53 3 53 4
52 282 0 282 0 -259 -259 c-259 -258 -259 -259 -296 -254 -21 3 -46 0 -56 -6
-16 -10 -11 -11 29 -8 26 3 47 1 47 -3 0 -7 -47 -43 -60 -46 -22 -5 -52 -23
-39 -23 8 -1 20 4 27 11 7 7 12 8 11 3 0 -6 -14 -21 -30 -34 -16 -13 -29 -19
-28 -15 5 31 -3 38 -20 17 -17 -21 -28 -23 -109 -23 l-91 0 -3 38 -3 37 -152
3 -153 3 -1 -41 c-1 -22 -2 -53 -2 -70 0 -76 -14 -70 158 -70 l155 0 0 41 0
41 61 -5 c65 -6 93 -17 40 -17 -20 0 -30 -4 -26 -11 4 -6 -2 -13 -13 -16 -27
-7 -37 -33 -14 -34 14 0 14 -2 -3 -8 -11 -5 -148 -9 -305 -10 -156 -1 -286 -4
-289 -7 -2 -2 72 -4 165 -5 93 -1 194 -3 224 -4 30 -2 87 -4 125 -4 49 -1 66
-4 55 -11 -8 -5 -27 -10 -42 -10 -16 0 -33 -9 -43 -22 -14 -21 -14 -23 2 -30
10 -3 -110 -8 -267 -9 -251 -2 -269 -3 -150 -10 74 -3 190 -7 257 -8 l121 -1
-11 -25 c-7 -14 -16 -25 -22 -25 -5 0 -3 -5 5 -10 11 -7 -4 -10 -50 -11 -36
-1 -159 -5 -275 -9 l-210 -6 243 -2 c153 -1 242 -6 242 -12 0 -5 -8 -10 -17
-10 -15 0 -15 -2 -4 -9 11 -7 7 -13 -17 -25 -17 -9 -41 -16 -54 -17 -22 -1
-22 -1 2 -8 15 -4 24 -14 24 -24 -1 -9 2 -17 8 -17 5 0 6 -4 3 -10 -3 -6 -56
-11 -118 -11 l-112 -2 95 -8 c52 -4 99 -5 104 -2 5 4 6 1 2 -5 -4 -7 -17 -12
-29 -12 -17 0 -19 -2 -8 -9 19 -12 -16 -31 -61 -32 l-33 -2 32 -6 32 -6 -39
-45 c-21 -24 -37 -47 -34 -49 3 -3 8 -1 12 5 10 14 68 54 79 54 4 0 1 -4 -6
-9 -27 -17 30 -22 212 -19 98 2 177 0 177 -4 0 -4 -66 -57 -146 -117 l-147
-111 -1459 0 c-803 0 -1464 -2 -1468 -5 -14 -8 -348 248 -349 268 -1 12 17 8
34 -9 13 -13 43 -18 134 -22 113 -4 351 9 284 16 -38 4 -44 26 -12 43 19 10
27 6 65 -32 64 -63 54 -37 -17 43 -33 37 -59 68 -57 68 2 0 -27 33 -65 73
l-69 72 234 5 233 5 -243 6 -244 6 -36 36 c-29 30 -32 36 -16 35 49 -1 569 15
573 18 2 2 -82 4 -187 4 l-192 0 23 23 22 22 -49 3 c-59 4 -66 -2 -38 -31 l21
-22 -108 3 -109 3 -30 37 c-23 30 -26 38 -13 39 9 0 115 4 236 8 121 3 222 8
224 11 2 2 -110 4 -251 4 l-255 0 -27 30 c-15 17 -24 35 -21 39 2 5 -3 8 -12
7 -9 0 -18 5 -20 12 -3 8 10 12 47 12 l53 0 -6 -40 -5 -40 159 0 160 0 -3 88
-3 87 -152 2 -153 2 0 -42 0 -42 -62 1 -61 2 -116 118 c-64 66 -147 153 -186
194 -38 42 -102 109 -140 150 -97 104 -293 315 -345 373 l-43 47 528 0 c291 0
526 2 524 5 -3 2 -241 5 -530 6 -376 1 -529 4 -539 13 -23 17 -240 253 -240
260 0 3 263 6 584 6 l584 0 123 -222 c68 -123 133 -242 144 -265 12 -23 27
-48 32 -55 6 -7 33 -56 61 -108 27 -52 92 -171 144 -265 52 -93 119 -217 149
-275 30 -58 56 -107 59 -110 7 -6 253 -449 262 -471 4 -9 12 -20 19 -25 11 -7
-37 89 -157 311 -27 50 -62 116 -79 147 -16 31 -87 159 -157 285 -69 125 -139
253 -156 283 -16 30 -50 93 -76 139 -25 46 -46 89 -46 96 0 8 -4 15 -9 17 -5
2 -38 57 -73 124 -34 66 -96 179 -135 251 -40 72 -73 133 -73 137 0 3 262 6
583 7 320 0 578 2 572 4 -5 2 -271 5 -589 7 l-580 3 -87 160 c-49 88 -88 163
-89 167 0 7 176 9 1107 15 l202 1 10 -52z m1334 47 c7 -13 -66 -327 -77 -335
-13 -9 -1186 -11 -1186 -2 0 3 -11 75 -25 160 -14 85 -25 161 -25 169 0 13 88
15 654 15 360 0 657 -3 659 -7z m1339 -3 c7 0 -154 -272 -185 -314 -13 -18
-42 -19 -607 -23 l-593 -5 7 38 c4 22 18 85 32 141 13 57 24 107 24 112 0 5 4
20 9 33 l9 24 649 -3 c356 -2 651 -4 655 -3z m-6428 -15 c-13 -32 5 -63 43
-76 21 -7 41 -13 44 -14 14 -1 69 -51 69 -63 0 -7 4 -11 8 -8 5 3 15 -4 22
-15 8 -10 24 -19 35 -19 12 0 30 -8 41 -18 10 -10 27 -16 37 -14 11 2 17 -3
17 -15 0 -30 57 -52 155 -62 82 -8 73 -8 -100 -10 l-190 -1 -60 43 c-90 62
-234 175 -280 218 -22 20 -53 44 -70 52 -29 16 -24 16 102 17 114 0 132 -2
127 -15z m1116 -52 c34 -38 92 -100 128 -138 37 -39 78 -83 91 -98 l24 -27
-159 2 c-87 1 -126 4 -86 5 55 3 72 7 72 18 0 8 -4 15 -8 15 -16 0 -52 37 -52
54 0 9 -4 16 -10 16 -5 0 -10 7 -10 15 0 8 -9 15 -20 15 -11 0 -20 6 -20 14 0
8 -9 18 -20 21 -13 4 -20 15 -20 31 0 13 -4 24 -10 24 -5 0 -10 9 -10 20 0 13
-7 20 -20 20 -11 0 -19 5 -17 12 2 14 -39 25 -98 27 -22 1 -47 6 -55 11 -10 7
26 10 111 10 l127 0 62 -67z m1373 -92 c48 -88 87 -164 87 -168 0 -4 -265 -7
-589 -5 l-588 2 -129 138 c-70 75 -139 149 -153 165 l-25 27 655 0 655 0 87
-159z m5150 142 c-40 -9 -63 -20 -63 -28 0 -20 -52 -72 -75 -77 -14 -2 -21
-12 -23 -34 -3 -26 -10 -35 -43 -49 -27 -13 -39 -24 -39 -39 0 -15 -3 -17 -9
-8 -6 10 -11 5 -20 -19 -15 -44 -14 -47 12 -52 12 -2 -234 -5 -546 -6 -452 -1
-567 2 -561 12 4 6 50 81 102 165 l94 152 616 -1 c568 -1 612 -2 555 -16z
m127 11 c0 -8 -19 -13 -24 -6 -3 5 1 9 9 9 8 0 15 -2 15 -3z m-10085 -24 c3
-5 2 -10 -4 -10 -5 0 -13 5 -16 10 -3 6 -2 10 4 10 5 0 13 -4 16 -10z m10049
-13 c-2 -7 -14 -19 -27 -26 -21 -13 -21 -12 2 13 27 29 33 32 25 13z m-9969
-97 c3 -5 1 -10 -4 -10 -6 0 -11 5 -11 10 0 6 2 10 4 10 3 0 8 -4 11 -10z
m-75 -21 c0 -11 -3 -11 -24 -3 -23 9 -20 23 4 17 11 -3 20 -9 20 -14z m9915
-9 c-3 -5 -12 -10 -18 -10 -7 0 -6 4 3 10 19 12 23 12 15 0z m-9035 -280 c0
-133 -4 -210 -10 -210 -6 0 -10 66 -10 179 0 160 5 241 16 241 2 0 4 -94 4
-210z m-192 55 c12 -60 21 -114 18 -120 -2 -6 -34 -24 -71 -40 -79 -33 -72
-39 -116 93 -22 67 -28 97 -20 105 16 16 145 76 156 73 6 -1 20 -52 33 -111z
m757 105 c3 -5 1 -10 -4 -10 -6 0 -11 5 -11 10 0 6 2 10 4 10 3 0 8 -4 11 -10z
m-236 -232 c-1 -131 -5 -218 -9 -198 -12 55 -29 91 -42 89 -34 -4 -58 2 -58
16 0 29 -19 15 -23 -17 -2 -18 -4 35 -4 117 0 83 2 133 4 113 3 -30 9 -38 24
-38 10 0 19 5 19 10 0 6 9 10 20 10 11 0 20 -5 20 -11 0 -5 5 -7 10 -4 6 3 10
17 10 30 0 13 5 27 10 30 6 3 10 24 10 46 0 21 2 39 5 39 3 0 4 -105 4 -232z
m198 200 c-3 -8 -6 -5 -6 6 -1 11 2 17 5 13 3 -3 4 -12 1 -19z m-1042 -18 c3
-5 -1 -10 -9 -10 -8 0 -18 5 -21 10 -3 6 1 10 9 10 8 0 18 -4 21 -10z m988
-33 c18 3 37 10 44 15 19 15 21 -1 21 -137 1 -113 -13 -287 -17 -212 0 15 -2
27 -4 27 -1 0 -17 4 -35 10 -29 8 -37 6 -58 -15 l-24 -24 0 132 c0 73 3 156 7
185 5 48 7 51 20 33 11 -16 21 -19 46 -14z m1400 13 c31 0 57 -4 57 -10 0 -18
65 -88 76 -82 5 4 96 -47 104 -58 3 -4 41 -25 85 -47 70 -35 93 -42 180 -49
95 -8 87 -9 -139 -15 l-240 -6 -84 66 c-46 36 -103 80 -126 96 -23 17 -65 50
-92 73 l-49 44 85 -6 c47 -3 111 -6 143 -6z m1039 -93 c52 -56 108 -118 125
-137 l31 -35 -122 3 c-66 1 -131 5 -143 7 -28 7 -29 26 -3 45 26 19 25 37 -1
45 -14 5 -19 13 -16 26 4 15 -2 20 -29 25 -32 6 -34 9 -34 45 0 36 -2 39 -37
48 -21 6 -58 12 -83 13 -25 1 4 4 63 7 59 4 118 7 131 8 18 2 45 -20 118 -100z
m5848 92 c41 -1 42 -2 15 -9 -16 -4 -48 -9 -70 -10 l-40 -3 35 -7 c23 -5 27
-8 13 -9 -12 0 -27 -10 -33 -20 -5 -11 -18 -22 -27 -26 -27 -8 -65 -90 -57
-121 l6 -25 27 23 c16 14 14 10 -7 -13 -18 -20 -38 -36 -45 -36 -154 -7 -1057
-14 -1057 -8 0 5 37 69 83 143 l82 135 515 -7 c283 -3 535 -6 560 -7z m-2333
-26 c-3 -16 -14 -77 -26 -138 -12 -60 -31 -159 -42 -220 -12 -60 -24 -114 -27
-120 -3 -5 -7 -21 -8 -35 -3 -23 -23 -115 -59 -270 -9 -36 -23 -101 -33 -145
l-17 -80 -395 0 -395 0 -6 45 c-4 25 -9 61 -12 80 -4 19 -18 109 -31 200 -14
91 -33 204 -41 251 -9 48 -20 129 -25 180 -9 94 -25 215 -35 257 l-5 22 581 0
581 0 -5 -27z m-7392 8 c3 -5 1 -12 -5 -16 -5 -3 -10 1 -10 9 0 18 6 21 15 7z
m1936 -122 c19 -72 24 -108 17 -116 -6 -7 -35 -27 -65 -44 -52 -30 -55 -30
-68 -13 -8 11 -15 26 -15 34 0 8 -14 44 -30 80 -22 50 -26 68 -17 77 25 24
132 92 142 90 6 -2 22 -50 36 -108z m9705 59 c54 -37 73 -56 69 -67 -33 -88
-72 -174 -81 -178 -6 -2 -37 11 -68 29 -55 32 -57 34 -53 68 6 44 48 200 54
200 3 0 38 -23 79 -52z m-11596 32 c0 -5 -2 -10 -4 -10 -3 0 -8 5 -11 10 -3 6
-1 10 4 10 6 0 11 -4 11 -10z m9714 -4 c-8 -20 -31 -27 -31 -10 0 7 4 11 8 8
4 -2 10 0 14 6 9 15 15 12 9 -4z m-9684 -6 c0 -5 -4 -10 -10 -10 -5 0 -10 5
-10 10 0 6 5 10 10 10 6 0 10 -4 10 -10z m2549 -37 c115 -62 195 -117 259
-176 51 -49 52 -51 52 -109 l0 -60 -62 54 c-35 30 -75 62 -90 71 -16 9 -40 25
-54 34 -27 17 -27 17 -15 -4 6 -12 11 -24 11 -26 0 -2 -28 -26 -61 -52 -59
-47 -62 -48 -76 -29 -34 45 -63 116 -63 154 0 35 3 40 23 41 l22 0 -22 11
c-20 10 -23 19 -23 75 0 34 3 63 6 63 4 0 46 -21 93 -47z m-2499 11 c0 -8 -5
-12 -10 -9 -6 4 -8 11 -5 16 9 14 15 11 15 -7z m395 6 c3 -5 1 -10 -4 -10 -6
0 -11 5 -11 10 0 6 2 10 4 10 3 0 8 -4 11 -10z m10406 -37 c1 -21 3 -73 5
-116 3 -72 1 -81 -27 -127 -17 -28 -34 -50 -39 -50 -8 0 -92 60 -115 82 -7 6
0 18 20 34 71 59 -78 -33 -161 -99 l-84 -67 0 57 c0 56 1 58 51 104 27 27 80
68 117 92 71 47 212 126 225 127 4 0 8 -17 8 -37z m-1216 17 c-3 -5 -10 -10
-16 -10 -5 0 -9 5 -9 10 0 6 7 10 16 10 8 0 12 -4 9 -10z m-9640 -80 c3 -5 1
-10 -4 -10 -6 0 -11 5 -11 10 0 6 2 10 4 10 3 0 8 -4 11 -10z m373 -49 c3 -8
-1 -12 -9 -9 -7 2 -15 10 -17 17 -3 8 1 12 9 9 7 -2 15 -10 17 -17z m3275 -28
c-7 -2 -21 -2 -30 0 -10 3 -4 5 12 5 17 0 24 -2 18 -5z m-3193 -13 c0 -5 -4
-10 -10 -10 -5 0 -10 5 -10 10 0 6 5 10 10 10 6 0 10 -4 10 -10z m3622 -110
c112 -116 356 -374 424 -450 28 -30 66 -71 85 -90 58 -60 204 -221 207 -230 4
-10 -33 -7 -60 5 -10 4 -16 10 -14 14 2 3 -8 7 -22 8 -15 1 -65 9 -112 17
-186 34 -476 30 -501 -6 -3 -5 -20 -10 -36 -10 -32 -1 -80 32 -303 203 -58 44
-193 147 -300 229 -107 81 -205 156 -218 166 -12 11 -85 66 -161 124 -77 58
-140 108 -140 111 -1 3 237 6 529 6 l530 -1 92 -96z m5398 49 c-6 -11 -18 -23
-26 -26 -25 -9 -6 -20 36 -20 22 0 45 -5 52 -11 14 -11 113 -33 168 -37 19 -2
69 -8 110 -14 42 -6 146 -10 231 -8 144 3 157 5 179 25 13 12 28 22 34 22 11
0 13 1 -60 -58 l-51 -42 -429 -5 c-236 -3 -431 -6 -434 -7 -3 -2 182 -5 410
-8 l415 -5 -120 -92 -120 -92 -400 -3 -400 -3 388 -5 389 -5 -109 -80 -108
-80 -348 0 c-191 0 -347 -3 -347 -8 0 -4 151 -6 335 -5 184 2 335 1 335 -2 0
-3 -36 -32 -80 -64 l-79 -59 -338 -4 c-192 -2 -342 -8 -347 -14 -6 -5 2 -9 22
-9 18 0 32 -4 32 -10 0 -5 -19 -10 -43 -10 -33 0 -49 -6 -67 -25 -13 -14 -28
-25 -34 -25 -6 0 8 19 31 43 269 275 768 767 777 767 4 0 2 -9 -4 -21z m-9025
1 c3 -5 1 -10 -4 -10 -6 0 -11 5 -11 10 0 6 2 10 4 10 3 0 8 -4 11 -10z m1020
-8 c-3 -3 -11 0 -18 7 -9 10 -8 11 6 5 10 -3 15 -9 12 -12z m-1095 -128 c0 -2
-7 -4 -15 -4 -8 0 -15 4 -15 10 0 5 7 7 15 4 8 -4 15 -8 15 -10z m1704 -96 c7
-5 11 -56 11 -160 l0 -153 -24 -3 -24 -4 6 174 c8 205 8 210 14 178 3 -14 10
-28 17 -32z m1158 -30 c81 -44 158 -101 158 -119 0 -6 -4 -8 -9 -4 -6 3 -6 -6
-1 -23 14 -52 -2 -57 -56 -19 -27 19 -78 49 -114 67 -36 18 -66 33 -66 34 -1
0 -5 25 -9 54 -5 38 -4 52 5 52 7 0 49 -19 92 -42z m8036 -203 c-3 -99 -3
-100 -28 -100 l-25 0 4 150 c3 121 6 154 20 169 15 17 16 14 24 -50 4 -38 6
-114 5 -169z m-1098 173 l0 -53 -44 -18 c-24 -10 -77 -40 -117 -67 -73 -47
-74 -48 -77 -24 -2 13 -7 24 -11 24 -14 0 -21 -44 -9 -51 12 -7 2 -29 -13 -29
-13 0 -11 84 3 98 15 15 31 16 22 0 -5 -7 -3 -8 5 -4 7 5 10 14 7 21 -7 19 40
58 134 109 47 25 88 46 93 46 4 0 7 -24 7 -52z m-10120 32 c0 -5 -5 -10 -11
-10 -5 0 -7 5 -4 10 3 6 8 10 11 10 2 0 4 -4 4 -10z m1405 -140 c3 -5 1 -10
-4 -10 -6 0 -11 5 -11 10 0 6 2 10 4 10 3 0 8 -4 11 -10z m1963 -48 c2 -32 -1
-52 -7 -52 -6 0 -11 15 -12 33 0 17 -2 43 -5 55 -3 16 0 22 8 20 8 -3 14 -26
16 -56z m-3338 -12 c0 -5 -5 -10 -11 -10 -5 0 -7 5 -4 10 3 6 8 10 11 10 2 0
4 -4 4 -10z m11650 -20 c0 -5 -5 -10 -11 -10 -5 0 -7 5 -4 10 3 6 8 10 11 10
2 0 4 -4 4 -10z m-11733 -6 c-3 -3 -12 -4 -19 -1 -8 3 -5 6 6 6 11 1 17 -2 13
-5z m3718 -130 c35 -19 78 -51 94 -70 33 -37 42 -70 16 -60 -19 7 -19 -1 0
-21 31 -30 6 -24 -39 10 -25 18 -70 47 -100 63 -52 27 -54 30 -58 71 -4 54 4
54 87 7z m5965 -19 c0 -44 -1 -45 -52 -71 -28 -14 -74 -42 -101 -60 -28 -19
-53 -32 -56 -28 -3 3 2 10 12 15 21 12 23 44 2 35 -22 -8 -18 9 10 43 23 26
157 110 178 111 4 0 7 -20 7 -45z m-8842 -26 c3 -56 3 -56 -29 -63 -40 -8 -45
-3 -53 56 -8 52 7 70 54 65 23 -2 25 -6 28 -58z m2021 -24 c7 -33 11 -100 9
-150 -3 -85 -4 -90 -25 -93 -23 -3 -23 -2 -23 110 0 129 10 227 20 207 4 -8
13 -41 19 -74z m7630 -123 l1 -133 -27 3 -27 3 2 105 c2 60 10 128 19 160 16
53 17 54 24 25 3 -16 7 -90 8 -163z m-8485 111 c11 -69 8 -80 -24 -91 -32 -12
-33 -11 -45 60 -6 33 -4 38 22 52 39 21 40 21 47 -21z m9347 21 c29 -14 30
-18 24 -57 -4 -23 -12 -47 -17 -54 -15 -18 -58 5 -58 31 0 30 12 96 17 96 2 0
18 -7 34 -16z m-8567 -40 c13 -33 6 -102 -10 -108 -33 -13 -41 -6 -48 42 -6
40 -4 49 15 65 26 21 35 21 43 1z m7785 0 c20 -15 23 -22 17 -61 -8 -59 -12
-64 -41 -51 -20 9 -25 19 -25 47 0 42 9 81 19 81 4 0 17 -7 30 -16z m-10649
-14 c0 -5 -4 -10 -10 -10 -5 0 -10 5 -10 10 0 6 5 10 10 10 6 0 10 -4 10 -10z
m7170 2 c0 -19 -53 -273 -88 -422 l-17 -75 -292 -3 -291 -2 -6 27 c-3 16 -8
48 -11 73 -3 25 -15 101 -26 170 -32 200 -36 230 -31 235 9 8 762 6 762 -3z
m-3746 -53 c6 -43 4 -53 -11 -65 -27 -20 -37 -12 -47 39 -8 41 -7 49 10 62 32
24 41 17 48 -36z m6671 31 c14 -15 16 -29 11 -65 -8 -48 -23 -57 -48 -27 -10
12 -13 32 -10 65 4 51 18 59 47 27z m-9555 -41 c23 -46 21 -51 -32 -73 l-36
-16 -25 43 -25 42 41 22 c23 12 45 22 48 23 4 0 17 -19 29 -41z m2667 4 c-3
-10 -5 -4 -5 12 0 17 2 24 5 18 2 -7 2 -21 0 -30z m627 -14 c6 -43 4 -53 -11
-65 -29 -22 -38 -16 -49 31 -9 39 -8 47 10 65 32 31 43 24 50 -31z m5851 31
c20 -19 21 -25 12 -65 -11 -48 -20 -53 -51 -30 -15 12 -17 22 -11 64 8 56 17
62 50 31z m-4529 -32 c14 -22 15 -71 2 -80 -7 -4 -23 -8 -35 -8 -21 0 -23 5
-23 50 0 46 2 50 24 50 14 0 28 -5 32 -12z m116 0 c2 -7 3 -29 3 -48 0 -31 -3
-35 -27 -38 -16 -2 -28 1 -28 7 0 6 7 11 15 11 18 0 20 16 3 24 -10 5 -10 7 0
12 17 8 15 24 -3 24 -8 0 -15 5 -15 10 0 15 47 12 52 -2z m2969 -28 c9 -41 -3
-60 -37 -60 -22 0 -24 4 -24 51 0 49 1 50 27 47 22 -2 29 -10 34 -38z m107 -5
c2 -21 -1 -42 -7 -48 -8 -8 -11 -8 -11 1 0 7 -9 12 -20 12 -24 0 -25 11 -4 51
20 39 38 32 42 -16z m-6566 -45 c16 -40 16 -40 -9 -60 -32 -25 -43 -22 -67 20
l-20 33 30 23 c16 13 34 24 39 24 6 0 18 -18 27 -40z m2413 -31 c27 -24 35
-39 35 -65 0 -19 -2 -34 -4 -34 -2 0 -31 18 -64 40 -33 22 -64 40 -70 40 -9 0
-22 77 -14 85 8 7 80 -34 117 -66z m7560 47 l30 -24 -19 -36 c-22 -41 -33 -44
-69 -16 -23 19 -25 24 -15 48 14 32 28 52 37 52 3 0 20 -11 36 -24z m-6830
-16 c16 -16 25 -30 21 -30 -5 0 -16 8 -25 18 -9 10 -25 24 -36 30 -15 9 -16
11 -4 12 8 0 28 -13 44 -30z m4463 -16 c-2 -25 -10 -41 -23 -48 -11 -6 -44
-25 -72 -43 -29 -18 -55 -33 -58 -33 -3 0 -5 12 -5 28 1 33 32 70 91 105 60
37 71 35 67 -9z m-9158 -10 c0 -8 -4 -12 -10 -9 -5 3 -10 13 -10 21 0 8 5 12
10 9 6 -3 10 -13 10 -21z m-70 6 c0 -5 -4 -10 -10 -10 -5 0 -10 5 -10 10 0 6
5 10 10 10 6 0 10 -4 10 -10z m2440 -32 c19 -32 19 -32 -2 -55 -26 -28 -37
-29 -54 -5 -18 23 -17 52 3 74 22 25 30 23 53 -14z m8322 15 c22 -20 23 -51 3
-81 -15 -21 -17 -21 -40 -6 -29 19 -32 50 -9 82 18 26 22 27 46 5z m-5942 -23
c0 -4 -12 -5 -26 -2 -17 3 -22 7 -13 12 13 9 39 2 39 -10z m-1485 -133 c0
-115 -1 -122 -20 -122 -19 0 -20 6 -19 107 2 125 9 167 27 149 8 -8 12 -54 12
-134z m6517 -7 l3 -125 -25 0 -25 0 4 110 c6 200 38 211 43 15z m-4987 90 c3
-6 -1 -7 -9 -4 -18 7 -21 14 -7 14 6 0 13 -4 16 -10z m-4870 -30 c3 -5 1 -10
-4 -10 -6 0 -11 5 -11 10 0 6 2 10 4 10 3 0 8 -4 11 -10z m4903 -15 c-3 -3 -9
2 -12 12 -6 14 -5 15 5 6 7 -7 10 -15 7 -18z m3392 0 c-7 -8 -17 -15 -23 -15
-6 0 -2 7 9 15 25 19 30 19 14 0z m-8290 -55 c0 -5 -4 -10 -10 -10 -5 0 -10 5
-10 10 0 6 5 10 10 10 6 0 10 -4 10 -10z m4985 -30 c10 -11 16 -20 13 -20 -3
0 -13 9 -23 20 -10 11 -16 20 -13 20 3 0 13 -9 23 -20z m-4218 -40 c1 -10 -2
-22 -7 -25 -6 -4 -10 7 -10 26 0 34 12 33 17 -1z m8671 -41 c2 -13 8 -28 13
-33 12 -13 12 -76 -1 -76 -5 0 -10 -22 -10 -50 0 -43 -3 -50 -20 -50 -19 0
-20 7 -20 113 0 63 3 117 7 121 12 12 28 0 31 -25z m1792 -7 c0 -27 -17 -45
-34 -39 -16 6 -23 57 -10 70 11 11 44 -13 44 -31z m-9270 -8 c0 -28 -3 -35
-17 -32 -31 6 -29 68 2 68 11 0 15 -10 15 -36z m-1398 0 c10 -21 9 -27 -3 -35
-24 -15 -48 -10 -60 13 -10 18 -8 24 7 35 27 20 43 16 56 -13z m2186 -30 c-2
-18 -10 -30 -20 -32 -14 -3 -18 4 -18 31 0 34 16 52 33 37 5 -4 7 -20 5 -36z
m1455 39 c-7 -2 -19 -2 -25 0 -7 3 -2 5 12 5 14 0 19 -2 13 -5z m4767 -3 c0
-5 -10 -10 -22 -10 -19 0 -20 2 -8 10 19 13 30 13 30 0z m1470 -36 c0 -23 -5
-34 -14 -34 -21 0 -28 17 -21 50 9 40 35 29 35 -16z m-7142 -11 c-3 -42 -21
-51 -26 -15 -4 29 4 52 18 52 7 0 10 -15 8 -37z m6580 3 c4 -33 -14 -58 -27
-38 -11 18 -1 74 13 69 6 -2 12 -16 14 -31z m-6160 -22 c-5 -42 -28 -43 -28
-1 0 18 3 37 7 40 12 13 25 -10 21 -39z m320 -1 c-3 -42 -21 -51 -26 -15 -4
29 4 52 18 52 7 0 10 -15 8 -37z m468 -2 c28 -21 56 -40 62 -42 7 -2 -77 -3
-185 -1 -109 1 -204 5 -210 7 -7 2 -13 20 -13 40 l0 35 148 0 147 0 51 -39z
m4474 0 c0 -22 -5 -43 -10 -46 -13 -8 -390 5 -390 14 0 3 22 21 48 38 l47 33
153 0 152 0 0 -39z m160 -7 c0 -27 -19 -42 -30 -24 -7 11 -7 35 -1 69 3 14 31
-26 31 -45z m-7364 10 c4 -17 2 -29 -7 -35 -21 -13 -27 -11 -40 13 -10 18 -8
24 7 35 26 19 33 16 40 -13z m9636 14 c21 -17 6 -61 -19 -56 -19 3 -28 30 -19
54 7 17 17 18 38 2z m-6262 -29 c0 -6 -4 -7 -10 -4 -5 3 -10 11 -10 16 0 6 5
7 10 4 6 -3 10 -11 10 -16z m-2562 -31 c4 -36 -25 -45 -40 -12 -10 21 -9 27 3
35 21 13 34 6 37 -23z m8011 23 c12 -8 13 -14 3 -35 -14 -31 -42 -25 -42 8 0
35 13 43 39 27z m-10314 -21 c18 -20 18 -21 -1 -35 -29 -22 -34 -18 -34 20 0
40 9 44 35 15z m2881 -16 c6 -24 -6 -43 -28 -44 -13 0 -19 41 -8 55 18 22 29
18 36 -11z m2049 -32 c-7 -7 -34 18 -47 42 -8 16 -3 14 21 -8 17 -16 29 -32
26 -34z m4805 43 c11 -14 5 -55 -8 -55 -21 1 -33 19 -26 43 7 30 16 34 34 12z
m-6432 -46 c-1 -12 -8 -24 -15 -26 -17 -6 -27 35 -12 53 16 19 32 4 27 -27z
m477 -1 c4 -24 5 -97 3 -162 -2 -92 -6 -120 -17 -124 -10 -3 -12 0 -8 11 3 8
-1 37 -9 64 -19 60 -10 253 12 253 7 0 15 -17 19 -42z m5535 8 c0 -6 -5 -18
-10 -26 -8 -13 -11 -13 -24 0 -20 22 -3 68 19 50 8 -7 15 -18 15 -24z m-484
-6 c8 -82 5 -191 -5 -228 -9 -32 -9 -47 -1 -57 9 -11 7 -12 -9 -8 -20 5 -21
12 -21 165 0 143 2 159 17 156 9 -2 17 -14 19 -28z m2518 -41 c-19 -21 -32
-23 -54 -9 -12 7 -12 12 -1 34 13 24 15 24 43 10 29 -15 29 -16 12 -35z
m-10067 21 c11 -17 10 -21 -8 -30 -15 -9 -24 -8 -35 1 -25 21 -15 45 21 48 6
1 16 -8 22 -19z m843 -36 c11 -12 11 -18 -2 -31 -19 -18 -38 -10 -38 16 0 33
20 40 40 15z m8370 -14 c0 -27 -19 -35 -38 -17 -12 13 -13 19 -3 31 16 19 41
10 41 -14z m-9971 -267 c1 -103 -1 -123 -14 -123 -13 0 -15 22 -15 138 0 75 3
169 7 207 l8 70 6 -85 c4 -47 7 -140 8 -207z m2511 237 c0 -22 -4 -40 -9 -40
-8 0 -9 61 -2 78 5 13 11 -6 11 -38z m420 -75 c0 -97 -2 -115 -15 -115 -12 0
-14 4 -7 16 6 10 5 29 -1 49 -5 18 -6 42 -2 52 4 10 8 35 10 56 2 48 4 57 10
57 3 0 5 -52 5 -115z m5685 66 c4 -37 -6 -54 -19 -33 -6 10 5 85 11 78 2 -2 6
-22 8 -45z m-9150 29 c3 -5 1 -10 -4 -10 -6 0 -11 5 -11 10 0 6 2 10 4 10 3 0
8 -4 11 -10z m4497 -6 c29 -15 30 -18 24 -61 -3 -25 -6 -70 -6 -99 0 -30 -4
-54 -10 -54 -5 0 -10 11 -10 25 0 14 -5 34 -12 45 -10 15 -9 22 5 38 24 26 21
39 -13 57 -21 11 -30 23 -30 40 0 29 10 31 52 9z m3658 -9 c0 -18 -7 -28 -25
-35 -34 -13 -40 -33 -20 -63 13 -20 14 -27 3 -38 -7 -8 -13 -26 -13 -41 1 -16
-3 -28 -7 -28 -7 0 -10 46 -12 172 -1 25 5 35 24 45 37 19 50 16 50 -12z
m1412 -15 c3 -16 1 -30 -4 -30 -4 0 -8 14 -8 30 0 17 2 30 4 30 2 0 6 -13 8
-30z m-7082 -6 c0 -8 -5 -12 -10 -9 -6 4 -8 11 -5 16 9 14 15 11 15 -7z m7645
6 c3 -5 1 -10 -4 -10 -6 0 -11 5 -11 10 0 6 2 10 4 10 3 0 8 -4 11 -10z
m-9751 -16 c8 -21 -1 -34 -24 -34 -22 0 -35 30 -18 42 20 12 35 9 42 -8z
m1316 -19 c0 -14 -4 -25 -10 -25 -5 0 -10 11 -10 25 0 14 5 25 10 25 6 0 10
-11 10 -25z m9230 -1 c0 -14 -5 -24 -11 -22 -6 2 -10 7 -10 11 1 4 1 14 1 22
0 8 5 15 10 15 6 0 10 -12 10 -26z m-6483 -117 c-2 -23 -3 -1 -3 48 0 50 1 68
3 42 2 -26 2 -67 0 -90z m6893 129 c0 -2 -7 -6 -15 -10 -8 -3 -15 -1 -15 4 0
6 7 10 15 10 8 0 15 -2 15 -4z m-8850 -46 c0 -32 -4 -40 -17 -39 -10 0 -13 3
-6 6 9 3 10 9 1 22 -12 20 -5 51 12 51 5 0 10 -18 10 -40z m7655 10 c0 -13 -6
-25 -12 -27 -9 -3 -13 6 -13 27 0 21 4 30 13 28 6 -3 12 -15 12 -28z m-7095
-45 c0 -55 -3 -65 -17 -65 -13 0 -14 3 -5 12 15 15 15 43 0 67 -12 20 -5 51
12 51 6 0 10 -27 10 -65z m5117 -17 c-2 -18 -4 -6 -4 27 0 33 2 48 4 33 2 -15
2 -42 0 -60z m1420 66 c3 -8 0 -26 -7 -39 -7 -13 -10 -33 -7 -44 3 -12 1 -24
-4 -27 -5 -3 -9 24 -9 60 0 63 13 87 27 50z m-8007 -14 c0 -21 -24 -28 -35
-10 -8 14 3 30 21 30 8 0 14 -9 14 -20z m7587 4 c3 -9 1 -32 -6 -52 -9 -32 -8
-39 7 -50 15 -12 15 -13 -8 -10 -14 2 -24 6 -22 11 1 4 2 32 2 62 0 53 14 73
27 39z m1898 6 c4 -6 1 -18 -6 -26 -11 -13 -14 -13 -27 0 -8 8 -11 19 -8 25 9
14 33 14 41 1z m-6436 -11 c31 -11 32 -13 29 -61 -2 -27 -9 -54 -15 -60 -10
-8 -12 -4 -7 20 5 25 2 33 -20 47 -16 11 -26 26 -26 41 0 28 -2 27 39 13z
m3386 1 c9 -15 -4 -50 -19 -50 -25 0 -37 -26 -27 -53 8 -20 7 -25 -3 -21 -15
6 -27 63 -19 92 7 29 56 51 68 32z m-5628 -34 c-4 -9 -11 -16 -17 -16 -17 0
-24 31 -9 41 18 11 34 -5 26 -25z m7873 9 c0 -19 -20 -29 -32 -17 -15 15 -2
43 17 36 8 -3 15 -12 15 -19z m-7300 -14 c0 -23 -16 -36 -25 -21 -9 14 1 40
15 40 5 0 10 -9 10 -19z m6718 -9 c2 -15 -2 -22 -12 -22 -11 0 -16 9 -16 26 0
31 23 28 28 -4z m-6291 -16 c-4 -9 -11 -16 -17 -16 -11 0 -14 33 -3 43 11 11
26 -10 20 -27z m4650 -3 c-3 -10 -5 -4 -5 12 0 17 2 24 5 18 2 -7 2 -21 0 -30z
m1213 6 c0 -10 -7 -19 -15 -19 -15 0 -21 31 -9 43 11 10 24 -3 24 -24z m-5545
-27 c-12 -13 -24 22 -12 37 10 12 13 11 15 -8 2 -13 1 -26 -3 -29z m5215 17
c0 -24 -23 -21 -28 4 -2 10 3 17 12 17 10 0 16 -9 16 -21z m-8900 -10 c13 -24
9 -32 -13 -23 -9 3 -15 14 -14 25 2 25 14 24 27 -2z m11360 1 c0 -5 -5 -10
-11 -10 -5 0 -7 5 -4 10 3 6 8 10 11 10 2 0 4 -4 4 -10z m-6620 -18 c13 -11
19 -23 15 -34 -10 -26 -55 -2 -55 29 0 28 10 29 40 5z m3128 -4 c-2 -12 -14
-28 -28 -35 -23 -11 -25 -10 -28 9 -2 13 4 27 14 35 28 20 46 16 42 -9z m3444
10 c-8 -8 -8 -15 -1 -24 11 -14 4 -34 -12 -34 -5 0 -9 16 -9 35 0 26 4 35 17
35 13 0 14 -3 5 -12z m-272 -8 c0 -5 -4 -10 -10 -10 -5 0 -10 5 -10 10 0 6 5
10 10 10 6 0 10 -4 10 -10z m-800 -24 c0 -3 -4 -8 -10 -11 -5 -3 -10 -1 -10 4
0 6 5 11 10 11 6 0 10 -2 10 -4z m-575 -15 c9 -16 -9 -20 -23 -5 -10 12 -10
14 2 14 8 0 17 -4 21 -9z m-435 -11 c8 -5 12 -11 10 -14 -3 -2 -14 2 -24 10
-22 15 -10 19 14 4z m-324 -15 c10 -8 14 -15 8 -15 -5 0 -19 7 -30 15 -10 8
-14 15 -8 15 5 0 19 -7 30 -15z m1574 0 c0 -8 -4 -15 -10 -15 -5 0 -10 7 -10
15 0 8 5 15 10 15 6 0 10 -7 10 -15z m-8782 -20 c7 -16 12 -80 12 -160 0 -128
-1 -135 -20 -135 -19 0 -20 7 -20 160 0 88 4 160 8 160 5 0 14 -11 20 -25z
m3138 17 c11 -7 26 -52 17 -52 -17 0 -43 24 -43 40 0 21 8 25 26 12z m2924 -2
c0 -5 -10 -20 -22 -32 -21 -21 -23 -21 -26 -5 -2 10 2 24 8 32 14 17 40 20 40
5z m3140 -159 l0 -158 -25 5 c-25 4 -25 5 -25 117 0 121 7 178 21 169 5 -3 9
4 9 16 0 12 5 18 10 15 6 -4 10 -70 10 -164z m-11280 119 c0 -5 -2 -10 -4 -10
-3 0 -8 5 -11 10 -3 6 -1 10 4 10 6 0 11 -4 11 -10z m4870 -93 c0 -43 -3 -58
-12 -55 -15 5 -23 79 -13 117 10 41 25 5 25 -62z m3618 -15 c-5 -61 -28 -52
-28 11 0 75 11 103 22 58 5 -18 8 -49 6 -69z m-3184 82 c16 -6 23 -44 8 -44
-12 0 -32 23 -32 37 0 15 2 15 24 7z m2736 -14 c0 -11 -2 -20 -4 -20 -2 0 -11
-3 -20 -6 -11 -4 -16 0 -16 14 0 18 11 29 33 31 4 1 7 -8 7 -19z m1227 -2 c-3
-8 -6 -5 -6 6 -1 11 2 17 5 13 3 -3 4 -12 1 -19z m-4267 -109 c0 -44 -3 -60
-12 -56 -7 2 -13 9 -12 15 1 7 2 35 3 63 2 72 21 52 21 -22z m400 35 c0 -18
-14 -18 -30 1 -16 19 -3 40 16 24 8 -6 14 -18 14 -25z m2554 11 c-7 -18 -34
-28 -34 -12 0 17 21 38 31 31 5 -2 6 -11 3 -19z m396 -52 c0 -41 -4 -53 -15
-53 -17 0 -18 15 -9 84 9 61 24 41 24 -31z m-5474 -123 c5 -82 4 -104 -7 -111
-36 -22 -39 -12 -39 119 0 70 3 138 7 152 6 23 8 22 19 -17 7 -23 16 -87 20
-143z m7624 19 c0 -75 -3 -138 -6 -141 -3 -3 -14 -4 -25 -1 -17 5 -19 15 -19
109 0 56 4 105 9 108 5 4 12 25 16 47 13 77 25 19 25 -122z m-5035 103 c0 -18
-20 -15 -23 4 -3 10 1 15 10 12 7 -3 13 -10 13 -16z m2415 4 c0 -8 -7 -16 -15
-20 -15 -5 -21 14 -8 27 11 12 23 8 23 -7z m-2761 -74 c1 -31 -3 -42 -11 -40
-15 5 -22 60 -13 97 7 24 8 25 15 6 5 -11 9 -39 9 -63z m3111 28 c0 -27 0 -53
1 -57 0 -4 -4 -9 -10 -11 -7 -2 -11 18 -11 57 0 34 4 61 10 61 6 0 10 -22 10
-50z m-3014 -34 c8 -31 2 -76 -11 -79 -5 -1 -11 22 -13 51 -3 54 12 73 24 28z
m2914 -31 c0 -50 -10 -69 -24 -46 -8 13 5 101 15 101 5 0 9 -25 9 -55z m-4715
13 c3 -18 7 -78 8 -133 2 -97 1 -100 -20 -103 -23 -3 -23 -2 -23 101 0 110 7
167 21 167 4 0 11 -15 14 -32z m6532 -107 c7 -126 3 -142 -28 -134 -21 6 -22
9 -16 117 4 61 9 122 13 135 13 43 25 -4 31 -118z m-4645 50 c2 -28 -1 -45 -9
-48 -10 -3 -13 11 -13 53 0 68 17 64 22 -5z m2738 -1 c0 -27 -4 -50 -10 -50
-5 0 -10 23 -10 50 0 28 5 50 10 50 6 0 10 -22 10 -50z m-2660 -41 c0 -31 -4
-48 -10 -44 -17 11 -12 95 7 95 2 0 3 -23 3 -51z m2580 2 c0 -22 -4 -43 -10
-46 -6 -4 -10 12 -10 39 0 25 5 46 10 46 6 0 10 -18 10 -39z m1572 -68 c4
-146 5 -138 -19 -141 -22 -3 -23 -1 -23 91 0 52 3 109 7 127 6 31 7 32 20 15
7 -11 14 -49 15 -92z m-4079 25 c4 -29 2 -38 -9 -38 -15 0 -19 35 -8 65 8 21
10 18 17 -27z m2427 -32 c-16 -16 -20 -2 -13 40 l7 39 7 -35 c4 -19 4 -39 -1
-44z m-3725 -67 c7 -105 1 -127 -31 -115 -15 6 -16 17 -9 98 4 50 9 97 12 104
13 33 21 7 28 -87z m5055 -30 c0 -65 -3 -88 -14 -92 -8 -3 -17 -3 -20 0 -8 9
-8 177 1 199 6 16 7 16 20 -2 8 -11 13 -48 13 -105z m-9290 31 c0 -5 -2 -10
-4 -10 -3 0 -8 5 -11 10 -3 6 -1 10 4 10 6 0 11 -4 11 -10z m50 0 c0 -5 -4
-10 -10 -10 -5 0 -10 5 -10 10 0 6 5 10 10 10 6 0 10 -4 10 -10z m80 -10 c0
-5 -2 -10 -4 -10 -3 0 -8 5 -11 10 -3 6 -1 10 4 10 6 0 11 -4 11 -10z m1160
-60 c0 -5 -4 -10 -10 -10 -5 0 -10 5 -10 10 0 6 5 10 10 10 6 0 10 -4 10 -10z
m3660 -100 c0 -66 -2 -78 -15 -74 -11 5 -15 23 -15 73 0 37 3 71 7 74 17 18
23 1 23 -73z m3618 2 c3 -68 2 -72 -19 -72 -19 0 -21 4 -15 31 3 17 6 52 6 76
0 31 4 43 13 41 8 -3 13 -30 15 -76z m-3484 26 c3 -13 6 -46 6 -75 0 -46 -2
-51 -20 -46 -22 6 -24 21 -14 97 7 50 18 59 28 24z m3346 -54 c0 -50 -3 -64
-15 -64 -12 0 -15 14 -15 63 0 35 3 67 6 70 16 15 24 -9 24 -69z m-3230 -25
c0 -46 -3 -59 -15 -59 -12 0 -15 13 -15 58 0 32 3 62 6 65 15 15 24 -8 24 -64z
m3115 16 c7 -58 2 -75 -21 -75 -15 0 -18 30 -8 93 9 53 21 46 29 -18z m-3017
-39 c2 -44 0 -57 -10 -54 -8 3 -14 26 -16 62 -2 44 0 57 10 54 8 -3 14 -26 16
-62z m2912 4 c0 -47 -3 -60 -15 -60 -16 0 -21 53 -9 98 12 42 24 22 24 -38z
m2740 45 c0 -8 -4 -15 -10 -15 -5 0 -10 7 -10 15 0 8 5 15 10 15 6 0 10 -7 10
-15z m-5570 -22 c0 -10 3 -35 6 -55 5 -31 4 -38 -10 -38 -13 0 -16 11 -16 55
0 30 5 55 10 55 6 0 10 -8 10 -17z m2740 -38 c0 -52 -11 -72 -23 -41 -8 19 4
96 14 96 5 0 9 -25 9 -55z m-2656 -17 c6 -40 5 -48 -8 -48 -12 0 -16 11 -16
43 0 24 3 47 7 50 9 10 10 8 17 -45z m2576 -10 c0 -28 -4 -38 -16 -38 -11 0
-14 5 -10 16 3 9 6 32 6 52 0 28 3 33 10 22 5 -8 10 -32 10 -52z m-2504 -43
c-3 -9 -10 -13 -16 -10 -12 7 -13 45 -3 72 6 15 9 13 16 -14 5 -18 7 -39 3
-48z m2434 24 c0 -9 -7 -22 -15 -29 -17 -14 -18 -8 -9 40 5 22 9 28 15 18 5
-7 9 -20 9 -29z m1787 -41 c-2 -13 -4 -5 -4 17 -1 22 1 32 4 23 2 -10 2 -28 0
-40z m-9757 -148 c0 -5 -5 -10 -11 -10 -5 0 -7 5 -4 10 3 6 8 10 11 10 2 0 4
-4 4 -10z m125 0 c3 -5 1 -10 -4 -10 -6 0 -11 5 -11 10 0 6 2 10 4 10 3 0 8
-4 11 -10z m5257 -209 c2 -29 -1 -46 -9 -48 -10 -3 -13 11 -13 53 0 67 16 63
22 -5z m78 9 c0 -27 -4 -50 -10 -50 -11 0 -14 83 -3 93 12 12 13 8 13 -43z
m70 4 c0 -27 -4 -43 -10 -39 -11 7 -13 45 -4 69 10 26 14 18 14 -30z m2510
-10 c0 -24 -4 -44 -10 -44 -5 0 -10 23 -10 51 0 31 4 48 10 44 6 -3 10 -26 10
-51z m80 -5 c0 -32 -4 -49 -11 -47 -6 2 -10 7 -10 11 1 4 1 28 1 53 0 27 4 43
10 39 6 -3 10 -29 10 -56z m-2825 -9 c0 -34 -5 -55 -12 -57 -10 -4 -13 12 -13
57 0 45 3 61 13 58 7 -3 12 -24 12 -58z m2667 -12 c-18 -18 -22 -6 -15 38 l7
39 9 -33 c7 -23 7 -36 -1 -44z m250 21 c3 -55 -3 -76 -21 -65 -19 12 -10 116
9 116 5 0 10 -23 12 -51z m102 20 c3 -17 6 -47 6 -65 0 -28 -4 -34 -20 -34
-17 0 -20 5 -16 28 2 15 5 44 5 65 1 45 16 49 25 6z m-3229 -44 c8 -70 5 -81
-20 -72 -16 7 -20 50 -9 106 10 50 22 36 29 -34z m109 49 c3 -9 6 -36 6 -60 0
-32 -4 -44 -15 -44 -12 0 -15 13 -15 60 0 57 11 78 24 44z m3236 -54 c0 -56
-3 -70 -15 -70 -11 0 -15 12 -15 48 0 26 3 57 6 70 12 44 24 21 24 -48z
m-3480 -27 c0 -49 -3 -63 -15 -63 -12 0 -15 14 -15 68 0 38 3 72 7 75 13 14
23 -19 23 -80z m3620 0 c0 -53 -3 -63 -17 -63 -16 0 -18 8 -15 62 2 35 5 70 8
78 10 30 24 -14 24 -77z m-4340 -74 c0 -100 -2 -110 -17 -107 -16 3 -18 15
-17 96 2 96 7 122 24 122 6 0 10 -41 10 -111z m5055 89 c3 -13 5 -61 3 -108
-2 -68 -6 -85 -18 -85 -18 0 -25 62 -15 153 7 63 20 80 30 40z m327 -44 c4
-21 7 -73 7 -115 1 -61 -2 -78 -15 -83 -27 -11 -34 3 -34 72 0 149 25 223 42
126z m-6118 -26 c5 -36 9 -181 7 -225 -1 -7 -10 -13 -21 -13 -19 0 -20 7 -20
118 0 117 6 162 20 162 4 0 10 -19 14 -42z m6535 -109 l3 -131 -23 4 c-23 3
-24 6 -23 83 1 118 13 200 27 186 8 -8 13 -61 16 -142z m-7079 -116 l0 -103
-26 0 -25 0 6 143 c4 78 9 149 12 157 11 30 32 -98 33 -197z m7633 125 c10
-127 9 -228 -4 -228 -6 0 -19 4 -29 10 -16 8 -17 20 -13 97 4 93 23 203 34
203 3 0 9 -37 12 -82z m786 -210 l1 -138 -25 0 -25 0 0 141 c0 111 3 144 15
155 8 9 16 27 16 42 4 75 18 -79 18 -200z m-9202 1 l6 -139 -27 0 c-26 0 -26
1 -26 68 0 38 3 110 7 161 5 83 7 89 20 71 11 -15 17 -63 20 -161z m-2172 141
c3 -5 1 -10 -4 -10 -6 0 -11 5 -11 10 0 6 2 10 4 10 3 0 8 -4 11 -10z m974
-307 c1 -139 -1 -163 -14 -163 -18 0 -19 44 -8 281 6 125 9 144 14 99 4 -30 7
-128 8 -217z m4563 174 c-2 -4 -8 -5 -13 -2 -11 7 -12 58 -1 69 7 8 21 -53 14
-67z m2436 20 c-2 -18 -18 -29 -18 -12 0 66 1 70 11 52 6 -10 9 -28 7 -40z
m-2508 -12 c0 -25 -4 -45 -10 -45 -5 0 -10 20 -10 45 0 25 5 45 10 45 6 0 10
-20 10 -45z m2580 0 c0 -25 -4 -45 -10 -45 -5 0 -10 20 -10 45 0 25 5 45 10
45 6 0 10 -20 10 -45z m-2658 -10 c1 -19 2 -42 2 -52 1 -9 -5 -18 -11 -20 -10
-4 -13 11 -13 51 0 60 19 79 22 21z m2738 -20 c0 -30 -4 -55 -10 -55 -5 0 -10
25 -10 55 0 30 5 55 10 55 6 0 10 -25 10 -55z m-2820 -51 c0 -32 -4 -44 -15
-44 -12 0 -15 13 -15 56 0 49 2 55 15 44 9 -8 15 -30 15 -56z m2912 14 c5 -61
3 -69 -18 -61 -9 3 -13 14 -10 32 2 14 5 38 5 54 2 48 19 29 23 -25z m-3012
-65 c0 -41 -4 -53 -15 -53 -12 0 -15 13 -15 58 0 32 3 62 7 65 13 13 23 -18
23 -70z m3118 -17 c-2 -17 -7 -31 -13 -31 -12 0 -19 90 -9 114 9 22 26 -40 22
-83z m-5733 53 c11 -17 -1 -21 -15 -4 -8 9 -8 15 -2 15 6 0 14 -5 17 -11z
m8363 -1 c-6 -18 -28 -21 -28 -4 0 9 7 16 16 16 9 0 14 -5 12 -12z m-5864
-124 c2 -60 2 -88 -1 -61 -3 32 -9 47 -19 47 -15 0 -20 72 -8 118 13 48 25 2
28 -104z m3347 54 c2 -41 -2 -60 -14 -73 -16 -15 -17 -13 -17 42 0 111 27 138
31 31z m3381 60 c-7 -7 -12 -22 -12 -35 0 -13 -4 -23 -10 -23 -17 0 -11 48 8
59 23 14 29 14 14 -1z m45 -6 c-10 -10 -17 -29 -17 -43 0 -18 -3 -20 -9 -10
-14 21 9 71 32 71 5 0 3 -8 -6 -18z m-10249 -4 c7 -7 11 -28 10 -47 l-1 -36
-4 32 c-3 19 -14 39 -26 48 -15 11 -17 15 -6 15 8 0 20 -5 27 -12z m62 -33 c0
-13 -5 -27 -12 -31 -8 -5 -9 -2 -4 11 4 10 0 28 -9 42 -16 24 -16 24 4 13 12
-6 21 -21 21 -35z m10244 20 c-9 -14 -13 -32 -9 -45 4 -13 2 -20 -8 -20 -15 0
-12 56 5 78 19 22 29 12 12 -13z m-10372 -2 c15 -18 18 -56 5 -69 -4 -4 -7 9
-7 29 0 24 -6 39 -17 46 -10 6 -13 11 -7 11 6 0 18 -8 26 -17z m1052 -8 c-4
-8 -10 -15 -15 -15 -4 0 -6 7 -3 15 4 8 10 15 15 15 4 0 6 -7 3 -15z m8350
-11 c4 -12 2 -12 -14 -4 -11 6 -20 15 -20 20 0 14 28 1 34 -16z m-5994 -92 c0
-71 -1 -72 -21 -61 -19 10 -21 16 -14 77 4 37 9 71 12 76 12 19 23 -24 23 -92z
m3619 6 c1 -38 -4 -60 -13 -65 -7 -4 -16 -15 -19 -23 -4 -8 -6 23 -4 70 5 133
35 148 36 18z m-3021 16 c-2 -10 -11 -20 -21 -22 -12 -3 -17 3 -17 21 0 26 18
41 33 27 5 -4 7 -16 5 -26z m-338 -31 c0 -41 -3 -54 -10 -43 -13 20 -13 100 0
100 6 0 10 -26 10 -57z m99 -5 c0 -45 -3 -57 -9 -43 -12 28 -12 105 0 105 6 0
10 -27 9 -62z m2656 37 c0 -28 -29 -25 -33 3 -3 19 0 23 15 20 10 -2 18 -12
18 -23z m222 -37 c-2 -13 -4 -3 -4 22 0 25 2 35 4 23 2 -13 2 -33 0 -45z m100
20 c-3 -8 -6 -5 -6 6 -1 11 2 17 5 13 3 -3 4 -12 1 -19z m-6613 -4 c9 -8 16
-21 15 -27 0 -7 -3 -7 -6 2 -3 8 -8 9 -12 3 -4 -6 -16 -1 -30 14 -22 23 -22
24 -3 24 11 0 28 -7 36 -16z m3804 -20 c-5 -26 -38 -31 -38 -7 0 24 21 46 33
34 5 -5 7 -17 5 -27z m6415 24 c-15 -7 -23 -20 -24 -37 0 -24 -1 -24 -9 -6 -5
11 -9 16 -9 11 -1 -5 -8 -2 -17 5 -14 12 -16 11 -13 -6 3 -11 18 -26 34 -34
17 -8 24 -16 17 -19 -21 -7 -62 27 -62 51 0 34 19 47 65 46 36 0 38 -1 18 -11z
m-6497 -25 c-10 -10 -19 5 -10 18 6 11 8 11 12 0 2 -7 1 -15 -2 -18z m2628 21
c9 -3 16 -15 16 -26 0 -28 -34 -19 -38 10 -4 24 -2 25 22 16z m-6456 -16 c11
-11 18 -68 8 -68 -2 0 -13 -3 -23 -6 -16 -6 -16 -5 2 10 19 15 19 17 2 30 -14
10 -15 15 -5 19 8 4 7 6 -4 6 -12 1 -18 -7 -19 -21 0 -22 -1 -22 -9 -3 -5 11
-9 26 -9 33 -1 15 41 16 57 0z m-1063 -28 c-11 -5 -36 -8 -55 -8 l-35 0 30 8
c17 4 41 8 55 8 23 1 23 0 5 -8z m4883 -51 c-21 -14 -28 -11 -28 12 0 12 8 28
18 35 15 11 17 10 20 -13 2 -14 -2 -30 -10 -34z m2722 41 c12 -6 16 -17 13
-30 -4 -16 -9 -18 -24 -9 -10 5 -19 19 -19 29 0 23 4 24 30 10z m-7959 -22
c23 -29 25 -93 3 -102 -24 -9 -29 -7 -16 6 30 30 8 94 -38 111 -10 3 -7 6 8 6
13 1 32 -9 43 -21z m83 0 c20 -29 21 -74 1 -82 -13 -5 -15 0 -9 28 5 27 1 39
-15 55 -15 15 -17 21 -7 21 8 0 22 -10 30 -22z m1426 7 c0 -8 -4 -15 -10 -15
-5 0 -7 7 -4 15 4 8 8 15 10 15 2 0 4 -7 4 -15z m-1617 -22 c17 -20 25 -72 14
-91 -15 -23 -22 -12 -19 32 3 36 0 46 -19 60 -17 11 -19 16 -8 16 9 0 23 -8
32 -17z m1487 -3 c0 -5 -5 -10 -11 -10 -5 0 -7 5 -4 10 3 6 8 10 11 10 2 0 4
-4 4 -10z m3768 -61 c-36 -23 -52 16 -17 42 24 18 24 18 27 -8 2 -14 -2 -30
-10 -34z m2913 41 c10 0 12 -33 3 -43 -12 -12 -44 14 -44 34 0 15 5 19 16 15
9 -3 20 -6 25 -6z m-236 -20 c3 -5 -1 -10 -9 -10 -9 0 -16 5 -16 10 0 6 4 10
9 10 6 0 13 -4 16 -10z m-2765 -53 c0 -25 -17 -47 -37 -47 -19 0 -16 41 5 56
25 19 32 17 32 -9z m3095 7 c41 -27 27 -66 -15 -44 -12 6 -20 21 -20 35 0 29
3 30 35 9z m-4075 -119 c0 -63 -3 -115 -7 -115 -30 1 -35 20 -31 111 2 52 7
100 11 107 20 31 27 4 27 -103z m5063 49 c4 -32 6 -79 5 -104 -3 -37 -6 -45
-23 -45 -17 0 -20 8 -23 55 -5 77 7 162 21 157 7 -2 15 -30 20 -63z m-9031 29
c22 -20 24 -76 3 -93 -13 -11 -13 -8 -4 18 7 22 7 36 -1 51 -17 32 -26 25 -22
-18 6 -62 -10 -81 -66 -79 l-47 1 45 6 c40 5 45 9 54 40 9 30 7 36 -17 56 -14
13 -23 26 -20 29 12 12 57 6 75 -11z m5280 -140 c-1 -95 -5 -148 -12 -147 -5
1 -14 2 -18 3 -9 1 -9 111 0 126 13 21 20 103 9 109 -15 10 -14 53 2 59 6 2
14 3 16 1 2 -2 3 -70 3 -151z m-452 79 c-18 -32 -60 -43 -60 -16 0 24 52 66
65 53 6 -6 4 -19 -5 -37z m3360 -9 c0 -25 -11 -28 -41 -13 -12 7 -19 21 -19
40 l0 29 30 -17 c19 -11 30 -25 30 -39z m-2975 -12 c-4 -14 -6 -68 -6 -118 2
-87 1 -93 -19 -93 -16 0 -20 6 -20 30 0 18 6 33 15 36 12 5 15 20 13 65 -1 33
-6 59 -10 59 -13 0 -9 48 5 53 21 7 29 -4 22 -32z m4133 -26 c7 -14 12 -71 12
-125 0 -100 0 -100 -25 -100 -24 0 -25 3 -25 58 0 81 12 192 20 192 4 0 12
-11 18 -25z m-4648 -25 c0 -23 -7 -33 -30 -45 -39 -20 -40 -20 -40 15 0 23 5
31 25 36 14 3 25 10 25 15 0 5 5 9 10 9 6 0 10 -13 10 -30z m3640 -32 c0 -33
-1 -33 -40 -13 -23 12 -30 22 -30 45 l0 30 35 -17 c28 -13 35 -23 35 -45z
m-3203 -33 l0 -85 -31 1 c-31 0 -31 0 -6 10 18 8 21 12 11 18 -9 6 -10 11 -2
15 13 9 15 66 2 66 -17 0 -17 35 -1 47 8 7 18 13 21 13 3 0 6 -38 6 -85z
m2714 75 c23 -13 26 -50 3 -50 -13 0 -15 -7 -10 -32 3 -18 7 -39 8 -45 1 -7 7
-13 15 -13 18 0 17 -20 -2 -21 -8 -1 -20 -2 -26 -3 -7 -1 -12 30 -14 87 -1 48
0 87 2 87 2 0 13 -5 24 -10z m-2805 -126 c-3 -8 -15 -14 -26 -14 -28 0 -27 43
3 63 21 14 22 13 25 -10 2 -14 1 -31 -2 -39z m2904 46 c4 0 10 -12 13 -26 3
-18 0 -28 -12 -32 -13 -5 -11 -8 9 -13 21 -6 20 -7 -12 -8 l-38 -1 0 46 c0 38
3 45 16 40 9 -3 19 -6 24 -6z m-8170 -60 c0 -5 -5 -10 -11 -10 -5 0 -7 5 -4
10 3 6 8 10 11 10 2 0 4 -4 4 -10z m9984 2 c2 -4 6 -66 7 -137 2 -118 1 -130
-16 -133 -10 -2 -22 2 -27 10 -8 12 -4 129 8 226 5 39 16 53 28 34z m-6526
-152 c5 -128 4 -130 -17 -130 -20 0 -21 4 -21 133 0 74 3 137 7 141 18 17 27
-24 31 -144z m1708 123 c-10 -10 -19 5 -10 18 6 11 8 11 12 0 2 -7 1 -15 -2
-18z m104 17 c0 -5 -12 -10 -27 -9 l-28 1 25 8 c14 4 26 8 28 9 1 1 2 -3 2 -9z
m3029 -4 c-11 -9 -69 -14 -69 -6 0 6 17 10 37 10 20 0 34 -2 32 -4z m54 -3
c-7 -2 -19 -2 -25 0 -7 3 -2 5 12 5 14 0 19 -2 13 -5z m-3743 -137 c0 -2 -7
-7 -16 -10 -8 -3 -12 -2 -9 4 6 10 25 14 25 6z m-40 -36 c-8 -5 -19 -10 -25
-10 -5 0 -3 5 5 10 8 5 20 10 25 10 6 0 3 -5 -5 -10z m4546 -171 c6 -100 9
-116 28 -131 14 -12 16 -18 7 -18 -8 0 -23 8 -34 18 -15 12 -21 14 -24 5 -3
-7 -11 -13 -19 -13 -10 0 -14 14 -14 55 0 30 -4 55 -10 55 -5 0 -10 9 -10 20
0 13 -7 20 -20 20 -13 0 -20 7 -20 20 0 13 -5 18 -15 14 -9 -4 -30 7 -49 24
-24 21 -31 32 -21 36 7 2 26 -7 41 -21 17 -15 30 -21 32 -14 2 6 8 9 13 5 5
-3 9 0 9 5 0 6 6 11 14 11 8 0 17 6 19 13 3 7 6 5 6 -5 1 -24 31 -23 31 0 0
10 3 22 7 26 16 16 24 -17 29 -125z m1433 -35 c1 -72 -2 -133 -5 -136 -3 -3
-14 -4 -25 -1 -17 5 -19 15 -19 105 0 66 6 116 17 150 23 73 31 43 32 -118z
m-7650 57 c16 -124 15 -197 -5 -205 -9 -3 -20 -6 -25 -6 -10 0 -13 293 -2 304
13 13 21 -10 32 -93z m1297 -37 c-5 -17 -25 -33 -66 -54 -78 -39 -90 -39 -90
5 0 30 4 36 43 54 23 10 58 30 77 44 l35 25 3 -25 c2 -14 1 -36 -2 -49z m5067
49 c23 -15 54 -33 68 -39 20 -9 28 -21 31 -49 4 -35 3 -36 -21 -30 -47 11
-112 47 -126 69 -12 18 -11 76 1 76 3 0 23 -12 47 -27z m-9183 -173 c0 -5 -4
-10 -10 -10 -5 0 -10 5 -10 10 0 6 5 10 10 10 6 0 10 -4 10 -10z m9509 -34
c27 -19 72 -46 100 -60 48 -25 51 -28 51 -66 0 -22 -2 -40 -4 -40 -2 0 -37 15
-77 34 -101 47 -129 74 -129 126 0 22 2 40 5 40 3 0 27 -15 54 -34z m-8099 14
c0 -5 -5 -10 -11 -10 -5 0 -7 5 -4 10 3 6 8 10 11 10 2 0 4 -4 4 -10z m2390
-29 c0 -26 -7 -46 -24 -64 -23 -24 -116 -77 -163 -91 -21 -7 -23 -4 -23 33 0
39 2 42 58 70 31 16 75 43 97 59 22 17 43 31 48 31 4 1 7 -16 7 -38z m5263 29
c8 0 8 -3 0 -11 -9 -9 -16 -7 -30 7 -17 17 -17 18 0 11 10 -4 24 -7 30 -7z
m-9193 -10 c0 -5 -5 -10 -11 -10 -5 0 -7 5 -4 10 3 6 8 10 11 10 2 0 4 -4 4
-10z m11380 -180 l0 -190 -26 0 -27 0 5 141 c3 89 9 143 16 148 6 3 14 26 18
49 4 23 8 42 10 42 2 0 4 -85 4 -190z m-9219 86 c5 -6 9 -74 9 -153 0 -136 -1
-143 -20 -143 -19 0 -20 6 -19 188 1 141 3 178 11 152 5 -19 14 -39 19 -44z
m-2001 -110 c0 -3 -4 -8 -10 -11 -5 -3 -10 -1 -10 4 0 6 5 11 10 11 6 0 10 -2
10 -4z m4123 -50 c-24 -32 -50 -48 -58 -36 -3 6 -2 10 4 10 5 0 22 11 37 25
34 32 40 32 17 1z m5905 -92 l92 -47 0 -49 c0 -47 -1 -49 -22 -42 -46 14 -181
90 -219 122 -36 31 -39 38 -39 84 l0 50 48 -36 c26 -20 89 -57 140 -82z
m-6678 50 c0 -40 -5 -51 -35 -78 -33 -30 -159 -103 -217 -125 l-28 -11 0 53 1
52 75 34 c41 19 101 54 132 77 31 24 60 43 65 43 4 1 7 -20 7 -45z m690 -24
c0 -5 -4 -10 -10 -10 -5 0 -10 5 -10 10 0 6 5 10 10 10 6 0 10 -4 10 -10z
m5332 -60 c29 0 30 -2 25 -30 -4 -16 -3 -30 2 -30 7 0 31 -43 31 -55 0 -3 -6
-5 -14 -5 -8 0 -16 -6 -19 -12 -3 -9 -15 -3 -36 16 -29 28 -31 33 -30 100 1
39 4 59 6 44 4 -24 9 -28 35 -28z m-9407 -100 c3 -5 1 -10 -4 -10 -6 0 -11 5
-11 10 0 6 2 10 4 10 3 0 8 -4 11 -10z m3858 -26 c-6 -17 -23 -9 -23 11 0 8 6
12 14 9 8 -3 12 -12 9 -20z m-3983 -24 c0 -5 -4 -10 -10 -10 -5 0 -10 5 -10
10 0 6 5 10 10 10 6 0 10 -4 10 -10z m9580 -10 c0 -5 -4 -10 -10 -10 -5 0 -10
5 -10 10 0 6 5 10 10 10 6 0 10 -4 10 -10z m-8611 -232 c1 -169 -5 -218 -24
-189 -3 6 -2 104 2 218 8 249 21 232 22 -29z m-449 192 c0 -5 -2 -10 -4 -10
-3 0 -8 5 -11 10 -3 6 -1 10 4 10 6 0 11 -4 11 -10z m10316 -175 l134 -67 0
-59 c0 -58 -1 -60 -22 -53 -46 14 -182 87 -264 141 -106 69 -126 96 -120 160
2 26 4 49 5 51 1 1 31 -22 67 -52 39 -32 120 -81 200 -121z m-7889 100 c3 -52
1 -57 -36 -94 -56 -56 -197 -143 -316 -196 l-55 -24 0 63 0 62 43 19 c98 43
246 130 297 175 30 27 57 49 60 50 3 0 6 -25 7 -55z m-2427 15 c0 -5 -5 -10
-11 -10 -5 0 -7 5 -4 10 3 6 8 10 11 10 2 0 4 -4 4 -10z m3757 -112 c-2 -18
-4 -6 -4 27 0 33 2 48 4 33 2 -15 2 -42 0 -60z m-4212 2 c-3 -5 -12 -10 -18
-10 -7 0 -6 4 3 10 19 12 23 12 15 0z m3853 -7 c-5 -25 -28 -28 -28 -4 0 12 6
21 16 21 9 0 14 -7 12 -17z m39 -130 c-3 -10 -5 -2 -5 17 0 19 2 27 5 18 2
-10 2 -26 0 -35z m-420 -100 c-3 -10 -5 -4 -5 12 0 17 2 24 5 18 2 -7 2 -21 0
-30z m-3417 -13 c0 -5 -2 -10 -4 -10 -3 0 -8 5 -11 10 -3 6 -1 10 4 10 6 0 11
-4 11 -10z m-50 -20 c0 -5 -4 -10 -10 -10 -5 0 -10 5 -10 10 0 6 5 10 10 10 6
0 10 -4 10 -10z m-30 -10 c0 -5 -5 -10 -11 -10 -5 0 -7 5 -4 10 3 6 8 10 11
10 2 0 4 -4 4 -10z m-45 -20 c3 -5 -1 -10 -10 -10 -9 0 -13 5 -10 10 3 6 8 10
10 10 2 0 7 -4 10 -10z m3550 -19 c3 -5 1 -12 -5 -16 -5 -3 -10 1 -10 9 0 18
6 21 15 7z m-1396 -164 c-30 -73 -262 -233 -536 -371 -51 -25 -95 -46 -98 -46
-3 0 -5 35 -5 79 l0 79 144 70 c164 80 356 199 436 271 l55 49 8 -51 c5 -34 3
-61 -4 -80z m-1419 -322 c7 -9 8 -15 2 -15 -5 0 -12 7 -16 15 -3 8 -4 15 -2
15 2 0 9 -7 16 -15z m790 -585 c0 -5 -5 -10 -11 -10 -5 0 -7 5 -4 10 3 6 8 10
11 10 2 0 4 -4 4 -10z m-240 -183 c0 -2 -10 -12 -22 -23 -14 -12 -18 -13 -10
-3 6 9 9 19 5 22 -3 4 1 7 10 7 10 0 17 -2 17 -3z m-150 -112 c-25 -26 -40
-32 -40 -15 0 6 7 10 15 10 8 0 19 9 25 21 7 11 14 18 18 15 3 -3 -5 -17 -18
-31z m-360 -269 c0 -3 -4 -8 -10 -11 -5 -3 -10 -1 -10 4 0 6 5 11 10 11 6 0
10 -2 10 -4z"/>
<path d="M2923 9863 c9 -2 23 -2 30 0 6 3 -1 5 -18 5 -16 0 -22 -2 -12 -5z"/>
<path d="M3413 10109 c-26 -26 55 -119 103 -119 24 0 72 25 86 45 19 26 8 56
-27 71 -41 17 -146 19 -162 3z"/>
<path d="M5523 8723 c142 -2 372 -2 510 0 139 1 23 2 -258 2 -280 0 -394 -1
-252 -2z"/>
<path d="M8535 8531 c-7 -12 12 -24 25 -16 11 7 4 25 -10 25 -5 0 -11 -4 -15
-9z"/>
<path d="M8785 8530 c-8 -12 20 -24 35 -15 6 3 8 11 5 16 -8 12 -32 12 -40 -1z"/>
<path d="M4788 8518 c9 -9 15 -9 24 0 9 9 7 12 -12 12 -19 0 -21 -3 -12 -12z"/>
<path d="M5048 8518 c9 -9 15 -9 24 0 9 9 7 12 -12 12 -19 0 -21 -3 -12 -12z"/>
<path d="M5045 8490 c-3 -5 1 -10 10 -10 9 0 13 5 10 10 -3 6 -8 10 -10 10 -2
0 -7 -4 -10 -10z"/>
<path d="M4643 8483 c31 -2 83 -2 115 0 31 2 5 3 -58 3 -63 0 -89 -1 -57 -3z"/>
<path d="M4873 8483 c32 -2 81 -2 110 0 29 2 3 3 -58 3 -60 0 -84 -1 -52 -3z"/>
<path d="M5138 8483 c34 -2 90 -2 125 0 34 2 6 3 -63 3 -69 0 -97 -1 -62 -3z"/>
<path d="M5408 8483 c6 -2 18 -2 25 0 6 3 1 5 -13 5 -14 0 -19 -2 -12 -5z"/>
<path d="M7728 8483 c116 -2 308 -2 425 0 116 1 21 2 -213 2 -234 0 -329 -1
-212 -2z"/>
<path d="M8543 8425 c0 -22 2 -30 4 -17 2 12 2 30 0 40 -3 9 -5 -1 -4 -23z"/>
<path d="M4803 8394 c-7 -3 -13 -12 -13 -20 0 -8 -9 -14 -20 -14 -22 0 -23 -5
-22 -135 l0 -70 180 -3 180 -2 4 67 c2 38 2 85 0 106 l-3 37 -105 0 c-86 0
-104 3 -104 15 0 9 -9 15 -22 15 -13 0 -32 2 -43 5 -11 2 -26 2 -32 -1z m93
-137 c23 -58 19 -67 -16 -45 -16 10 -24 10 -41 0 -27 -17 -34 -9 -21 25 6 15
16 41 22 56 14 40 31 30 56 -36z m132 50 c6 -7 9 -22 6 -34 -3 -11 -1 -24 5
-27 14 -9 -2 -41 -24 -50 -19 -7 -58 11 -50 24 3 4 14 6 25 3 14 -4 20 0 20
11 0 9 -8 16 -20 16 -11 0 -20 5 -20 10 0 6 9 10 21 10 12 0 19 5 16 13 -2 6
-11 11 -21 9 -16 -3 -22 9 -9 21 11 11 40 8 51 -6z"/>
<path d="M4850 8260 c0 -5 5 -10 10 -10 6 0 10 5 10 10 0 6 -4 10 -10 10 -5 0
-10 -4 -10 -10z"/>
<path d="M8516 8362 l-29 -4 7 -75 c3 -42 6 -89 6 -105 l0 -28 185 0 185 0 0
105 c0 102 -1 105 -22 105 -180 4 -309 4 -332 2z m130 -103 c14 -34 18 -55 11
-58 -5 -2 -15 3 -21 11 -12 16 -32 13 -58 -10 -16 -14 -18 -14 -18 0 0 9 6 31
14 49 7 19 16 42 20 52 10 30 29 14 52 -44z m134 28 c0 -18 5 -38 10 -43 7 -7
5 -17 -6 -30 -11 -13 -17 -15 -20 -6 -3 6 -14 12 -24 12 -31 0 -33 19 -6 61
32 48 46 50 46 6z"/>
<path d="M8600 8266 c0 -9 5 -16 10 -16 6 0 10 4 10 9 0 6 -4 13 -10 16 -5 3
-10 -1 -10 -9z"/>
<path d="M8747 8274 c-4 -4 -7 -14 -7 -23 0 -11 3 -12 11 -4 6 6 10 16 7 23
-2 6 -7 8 -11 4z"/>
<path d="M8032 8283 c37 -2 100 -2 140 0 40 1 10 3 -67 3 -77 0 -110 -1 -73
-3z"/>
<path d="M8358 8283 c23 -2 59 -2 80 0 20 2 1 4 -43 4 -44 0 -61 -2 -37 -4z"/>
<path d="M8948 8283 c39 -2 105 -2 145 0 39 1 7 3 -73 3 -80 0 -112 -2 -72 -3z"/>
<path d="M8538 8108 c-14 -4 -2 -6 35 -7 35 -1 56 3 52 9 -6 10 -48 9 -87 -2z"/>
<path d="M8808 8113 c7 -3 16 -2 19 1 4 3 -2 6 -13 5 -11 0 -14 -3 -6 -6z"/>
<path d="M8938 8103 c7 -3 16 -2 19 1 4 3 -2 6 -13 5 -11 0 -14 -3 -6 -6z"/>
<path d="M5150 8050 c0 -5 5 -10 10 -10 6 0 10 5 10 10 0 6 -4 10 -10 10 -5 0
-10 -4 -10 -10z"/>
<path d="M5360 8050 c0 -5 5 -10 10 -10 6 0 10 5 10 10 0 6 -4 10 -10 10 -5 0
-10 -4 -10 -10z"/>
<path d="M8222 8051 c2 -7 7 -12 11 -12 12 1 9 15 -3 20 -7 2 -11 -2 -8 -8z"/>
<path d="M8432 8049 c2 -6 8 -10 13 -10 5 0 11 4 13 10 2 6 -4 11 -13 11 -9 0
-15 -5 -13 -11z"/>
<path d="M5360 7960 c0 -5 5 -10 10 -10 6 0 10 5 10 10 0 6 -4 10 -10 10 -5 0
-10 -4 -10 -10z"/>
<path d="M8220 7960 c0 -5 5 -10 10 -10 6 0 10 5 10 10 0 6 -4 10 -10 10 -5 0
-10 -4 -10 -10z"/>
<path d="M8430 7960 c0 -5 5 -10 10 -10 6 0 10 5 10 10 0 6 -4 10 -10 10 -5 0
-10 -4 -10 -10z"/>
<path d="M5488 7823 c34 -2 88 -2 120 0 31 2 3 3 -63 3 -66 0 -92 -1 -57 -3z"/>
<path d="M8053 7823 c20 -2 54 -2 75 0 20 2 3 4 -38 4 -41 0 -58 -2 -37 -4z"/>
<path d="M5648 7713 c23 -2 59 -2 80 0 20 2 1 4 -43 4 -44 0 -61 -2 -37 -4z"/>
<path d="M5848 7713 c12 -2 30 -2 40 0 9 3 -1 5 -23 4 -22 0 -30 -2 -17 -4z"/>
<path d="M5403 7433 c15 -2 39 -2 55 0 15 2 2 4 -28 4 -30 0 -43 -2 -27 -4z"/>
<path d="M7888 7433 c28 -2 76 -2 105 0 28 2 5 3 -53 3 -58 0 -81 -1 -52 -3z"/>
<path d="M5680 7260 c0 -5 8 -13 17 -19 20 -11 57 4 48 20 -8 12 -65 12 -65
-1z"/>
<path d="M7580 7180 c-6 -11 -8 -20 -6 -20 3 0 10 9 16 20 6 11 8 20 6 20 -3
0 -10 -9 -16 -20z"/>
<path d="M6590 7115 c0 -11 5 -27 10 -35 8 -12 10 -12 10 5 0 11 -5 27 -10 35
-8 12 -10 12 -10 -5z"/>
<path d="M7057 7106 c-5 -15 -6 -31 -3 -34 8 -8 18 25 14 45 -3 13 -6 10 -11
-11z"/>
<path d="M6768 8483 c12 -2 30 -2 40 0 9 3 -1 5 -23 4 -22 0 -30 -2 -17 -4z"/>
<path d="M2730 8756 c0 -3 9 -10 20 -16 11 -6 20 -8 20 -6 0 3 -9 10 -20 16
-11 6 -20 8 -20 6z"/>
<path d="M3478 8483 c6 -2 18 -2 25 0 6 3 1 5 -13 5 -14 0 -19 -2 -12 -5z"/>
<path d="M4133 8483 c9 -2 25 -2 35 0 9 3 1 5 -18 5 -19 0 -27 -2 -17 -5z"/>
<path d="M4258 8483 c6 -2 18 -2 25 0 6 3 1 5 -13 5 -14 0 -19 -2 -12 -5z"/>
<path d="M5190 7850 c0 -5 5 -10 10 -10 6 0 10 5 10 10 0 6 -4 10 -10 10 -5 0
-10 -4 -10 -10z"/>
<path d="M5190 7810 c0 -5 4 -10 9 -10 6 0 13 5 16 10 3 6 -1 10 -9 10 -9 0
-16 -4 -16 -10z"/>
<path d="M8270 7850 c0 -5 5 -10 10 -10 6 0 10 5 10 10 0 6 -4 10 -10 10 -5 0
-10 -4 -10 -10z"/>
<path d="M8270 7816 c0 -9 5 -16 10 -16 6 0 10 4 10 9 0 6 -4 13 -10 16 -5 3
-10 -1 -10 -9z"/>
<path d="M8386 7841 c-4 -7 -5 -15 -2 -18 9 -9 19 4 14 18 -4 11 -6 11 -12 0z"/>
<path d="M5857 11950 c3 -30 9 -68 14 -85 6 -20 7 -9 2 35 -3 36 -9 74 -14 85
-4 12 -5 -3 -2 -35z"/>
<path d="M5882 11800 c0 -19 2 -27 5 -17 2 9 2 25 0 35 -3 9 -5 1 -5 -18z"/>
<path d="M5892 11725 c0 -22 3 -49 8 -60 l9 -20 0 20 c0 11 -4 38 -8 60 l-9
40 0 -40z"/>
<path d="M5912 11615 c0 -16 2 -22 5 -12 2 9 2 23 0 30 -3 6 -5 -1 -5 -18z"/>
<path d="M5922 11555 c-1 -16 3 -48 7 -70 11 -53 12 -5 2 55 -6 34 -9 37 -9
15z"/>
<path d="M6138 11163 c78 -2 206 -2 285 0 78 1 14 3 -143 3 -157 0 -221 -2
-142 -3z"/>
<path d="M11730 10895 c0 -8 7 -15 15 -15 8 0 15 7 15 15 0 8 -7 15 -15 15 -8
0 -15 -7 -15 -15z"/>
<path d="M11680 10834 c0 -8 5 -12 10 -9 6 4 8 11 5 16 -9 14 -15 11 -15 -7z"/>
<path d="M11526 10685 c-8 -8 -19 -15 -25 -15 -13 0 -14 -17 -2 -25 9 -5 61
39 61 50 0 10 -19 4 -34 -10z"/>
<path d="M11452 10637 c-25 -11 -27 -47 -3 -55 8 -3 11 0 7 7 -4 6 -1 11 7 11
8 0 20 6 26 14 17 21 -8 36 -37 23z"/>
<path d="M5611 4454 c0 -11 3 -14 6 -6 3 7 2 16 -1 19 -3 4 -6 -2 -5 -13z"/>
<path d="M5283 4325 c0 -22 2 -30 4 -17 2 12 2 30 0 40 -3 9 -5 -1 -4 -23z"/>
<path d="M8123 4285 c0 -22 2 -30 4 -17 2 12 2 30 0 40 -3 9 -5 -1 -4 -23z"/>
<path d="M8566 4102 c-7 -12 -6 -59 2 -87 4 -13 8 -3 13 30 6 48 -2 78 -15 57z"/>
<path d="M5031 3934 c0 -11 3 -14 6 -6 3 7 2 16 -1 19 -3 4 -6 -2 -5 -13z"/>
<path d="M9248 3738 c2 -40 7 -77 12 -82 6 -6 10 -19 9 -30 0 -21 0 -21 -9 -1
-8 18 -9 17 -9 -7 -1 -14 2 -33 5 -42 12 -32 23 -15 27 42 2 31 4 -64 6 -213
1 -171 6 -262 11 -248 10 23 12 463 3 568 -3 39 -10 64 -21 73 -31 24 -37 14
-34 -60z"/>
<path d="M9400 3580 c-6 -4 -11 -10 -11 -14 1 -3 1 -52 0 -108 0 -67 -3 -96
-9 -83 -7 16 -9 14 -9 -15 0 -20 3 -30 7 -23 5 8 13 -9 20 -43 7 -36 20 -64
36 -79 l24 -22 7 172 c5 117 4 178 -4 192 -12 23 -43 34 -61 23z"/>
<path d="M4185 3570 c-46 -18 -48 -30 -41 -203 4 -89 9 -163 11 -166 2 -2 12
5 22 15 13 12 14 19 5 22 -16 5 -15 22 2 22 8 0 17 15 20 36 6 29 10 33 22 24
12 -11 14 -6 14 32 0 25 -3 48 -7 52 -5 4 -8 44 -8 88 0 83 -5 93 -40 78z"/>
<path d="M9356 3415 c4 -8 8 -15 10 -15 2 0 4 7 4 15 0 8 -4 15 -10 15 -5 0
-7 -7 -4 -15z"/>
<path d="M9503 3255 c0 -22 2 -30 4 -17 2 12 2 30 0 40 -3 9 -5 -1 -4 -23z"/>
<path d="M3860 3265 c-7 -8 -18 -15 -24 -15 -6 0 -23 -11 -38 -24 l-27 -24 8
-154 c4 -84 9 -136 10 -116 0 20 4 44 7 52 5 14 9 14 25 -5 l18 -21 6 28 c4
16 9 35 11 42 2 7 -1 22 -7 33 -8 16 -7 26 5 44 9 14 16 44 16 67 0 24 4 58 9
76 10 34 2 42 -19 17z"/>
<path d="M4324 3164 c3 -9 6 -36 6 -60 0 -24 5 -44 10 -44 6 0 10 27 10 60 0
48 -3 60 -16 60 -11 0 -14 -5 -10 -16z"/>
<path d="M4172 3115 c-2 -23 -4 -27 -12 -15 -7 11 -10 6 -10 -20 0 -19 4 -42
9 -49 13 -21 24 23 18 75 -3 32 -4 33 -5 9z"/>
<path d="M10036 3045 c2 -49 9 -94 16 -100 11 -10 6 44 -13 145 -6 33 -7 22
-3 -45z"/>
<path d="M10128 3069 c29 -29 55 -49 59 -46 3 4 -7 17 -23 31 -16 13 -40 33
-53 45 -47 41 -35 20 17 -30z"/>
<path d="M9612 2950 c0 -14 2 -19 5 -12 2 6 2 18 0 25 -3 6 -5 1 -5 -13z"/>
<path d="M3270 2881 c0 -5 -9 -13 -20 -16 -20 -6 -48 -45 -33 -45 4 0 23 13
42 29 22 18 30 30 23 35 -7 4 -12 3 -12 -3z"/>
<path d="M3397 2840 c-3 -11 -1 -20 4 -20 5 0 9 2 9 4 0 2 3 11 6 20 3 9 2 16
-4 16 -5 0 -12 -9 -15 -20z"/>
<path d="M3012 2620 c0 -14 2 -19 5 -12 2 6 2 18 0 25 -3 6 -5 1 -5 -13z"/>
<path d="M10601 2624 c0 -11 3 -14 6 -6 3 7 2 16 -1 19 -3 4 -6 -2 -5 -13z"/>
<path d="M0 170 l0 -170 899 0 900 0 108 128 c60 70 122 145 140 167 l31 40
-1039 2 -1039 3 0 -170z"/>
<path d="M11549 311 c6 -11 21 -27 35 -38 13 -10 72 -75 130 -145 l107 -128
90 0 89 0 0 165 0 165 -230 0 c-224 0 -230 -1 -221 -19z"/>
</g>
</svg>
